<svg xmlns="http://www.w3.org/2000/svg"><style>:root svg:not(:target){display:none}</style><svg viewBox="0 0 526 600" id="icon-asshole"><g fill="currentColor"><path d="M98.5 2.2c-2.3 2-3.1 4.6-6.5 20.8-14.3 69.1-35.6 130.8-58.4 169.3-11.7 19.8-21.3 42.1-26.5 61.7-8.2 30.9-8.4 45.3-1.2 106C8.7 383.9 16 445.3 22 496.5c6 51.1 11.4 94.7 12 96.7 1.2 4.1 4.9 6.8 9.5 6.8 3.9 0 8.5-5 8.5-9.2-.1-1.8-5.6-48.7-12.4-104.3-6.7-55.6-12.2-101.1-12.2-101.2.1-.1 4.7 4.2 10.1 9.5 25.6 25 61.7 41.4 99.5 45.3 30.3 3.1 65.2-5.8 90.8-23.3l4.3-2.9 3.6 3.1c1.9 1.7 4.6 3.6 5.9 4.2 1.7.8 2.2 1.7 1.9 3.2-.3 1.2-7.7 37.1-16.6 80-17.6 85.5-17.2 81.8-10.6 85.3 2.5 1.2 3.7 1.3 6.9.4 2.1-.7 4.5-2.2 5.3-3.4.8-1.2 8.6-37.5 17.3-80.5 8.8-43.1 16.2-78.6 16.6-78.9.3-.4.9-.4 1.2 0 .4.3 7.8 35.8 16.6 78.9 8.7 43 16.5 79.3 17.3 80.5.8 1.2 3.3 2.8 5.5 3.4 3.6 1.1 4.4 1 6.8-.8 6.3-4.7 7 .8-10.7-85.3-8.9-43.2-16.4-79.2-16.6-80.1-.3-1 .4-2 1.9-2.7 1.3-.6 4-2.5 6-4.2l3.6-3.2 6.3 4c27 17 58.3 25 87.8 22.2 38.8-3.7 74.7-19.9 100.7-45.5 9.3-9.3 10.2-9.9 9.7-7.1-1 6.2-24.5 201.6-24.5 204.1 0 3.5 5 8.5 8.5 8.5 3.9 0 8.1-2.6 9.3-5.7 1.3-3.5 30.9-253.2 33.2-280.3 3.2-37.7-8.1-79.9-32.9-122.5-23.3-39.9-44-100.1-58.5-170-3-14.8-3.8-17.3-6.1-19.3-3-2.5-6.4-2.8-10.4-.7-5.3 2.7-5.6 5.5-2.1 22.6 14.6 71.7 37 136.7 61.1 177.5 30 50.8 38.5 106.1 22.5 146-14 34.6-50.5 61.9-96 71.6-13.4 2.8-36.2 3.1-48.4.5-29.7-6.3-55.8-22.4-77.3-47.7-8-9.4-10-10.9-14.5-11-3.6 0-5.1 1.3-14.7 12.7-16.1 19-38.6 34.4-60.9 41.7-13.9 4.5-23 6-37.8 5.9-42.1-.1-88.2-22.5-110.6-53.8C18 338.9 14 298.8 27 253.5c5.3-18.3 9.7-28 28.4-62C72.7 160 88.7 115.8 101.9 63c9.1-36.2 12.3-53 11-56.9-2-5.8-9.7-7.9-14.4-3.9zm176.6 396 4 4.7-4.3 2.3c-5.5 2.9-15.3 3.1-22 .5l-4.8-1.9 7.3-7.9c3.9-4.4 7.4-8.5 7.6-9 .4-1.2 6.3 4.3 12.2 11.3z"></path><path d="M257.1 2.6C254.6 4.7 254 6 254 9c0 5.8 3.5 9.5 9 9.5s9-3.7 9-9.5c0-3-.6-4.3-3.1-6.4-1.7-1.5-4.3-2.6-5.9-2.6-1.6 0-4.2 1.1-5.9 2.6zM256.5 40.5l-2.5 2.4V119c0 52.6.3 76.8 1.1 78.2.6 1.1 2.6 2.6 4.5 3.4 2.9 1.2 3.9 1.2 6.8 0 1.9-.8 3.9-2.3 4.5-3.4.8-1.4 1.1-25.6 1.1-78.2V42.9l-2.5-2.4c-1.8-1.9-3.5-2.5-6.5-2.5s-4.7.6-6.5 2.5zM259.4 268c-4.8 2-5.4 4.3-5.4 22.2V307h-4.5c-6.1 0-9.5 3.2-9.5 8.9 0 3.4 1 5.1 8.3 13.9 8.1 9.8 10.9 12.2 14.7 12.2 3.8 0 6.6-2.4 14.8-12.2 7.2-8.8 8.2-10.5 8.2-13.9 0-5.7-3.4-8.9-9.5-8.9H272v-16.9c0-16.2-.1-17.1-2.2-19.5-2.5-2.9-7.2-4-10.4-2.6zM334 327.5c-8 4.1-14.8 7.5-15.2 7.5-.5 0-.8-.6-.8-1.4 0-.8-1.1-2.7-2.4-4.3-2.9-3.4-9.2-3.9-12.5-.9-2 1.8-12.1 24.5-12.1 27.2 0 2.9 2.9 7.1 5.7 8.2 4.4 1.8 21.3 5.2 25.5 5.2 7.4 0 11.6-8.6 7.2-14.8-.9-1.3-1.4-2.5-1.3-2.6.2-.2 6.8-3.6 14.6-7.7 11.8-6.1 14.5-7.9 15.8-10.6.9-1.9 1.3-4.3.9-5.8-.8-3.2-5.9-7.5-8.7-7.5-1.2.1-8.7 3.4-16.7 7.5zM167.6 324.1c-3.1 3.6-3.3 7.7-.7 11 1 1.4 8.2 5.7 16 9.7l14.1 7.4-2 2.5c-3.9 5-1.7 12.3 4.5 14.3 2.6.9 5.4.6 15.1-1.6 16.2-3.6 18.3-4.9 18.4-11.2 0-3.8-8.5-24.7-11.1-27.3-4.6-4.6-12.7-2.8-14.9 3.3l-1.2 3.4-14.2-7.3c-16.5-8.5-19.9-9.1-24-4.2z"></path></g></svg><svg fill="currentColor" id="icon-bell" viewBox="0 0 16 16"><path d="M8 16a2 2 0 0 0 2-2H6a2 2 0 0 0 2 2zm.995-14.901a1 1 0 1 0-1.99 0A5.002 5.002 0 0 0 3 6c0 1.098-.5 6-2 7h14c-1.5-1-2-5.902-2-7 0-2.42-1.72-4.44-4.005-4.901z"></path></svg><svg id="icon-bones" viewBox="0 0 33 52"><g fill="currentColor"><path d="M18 6.5c-5.3 5.3-7 6.5-9.6 6.5C4.8 13 2 15.2 2 17.8 2 20.6 4.9 24 7.3 24c1.3 0 3.3 1.4 5 3.5 1.5 1.9 3.4 3.5 4.2 3.5 2.1 0 4.8-4.7 4.2-7.2-.5-1.6.9-3.6 6-9 3.7-3.7 6.3-7.1 5.9-7.5-.4-.4-3.9 2.4-7.7 6.3-6 6.2-6.9 7.7-6.9 10.8 0 4.7-1.9 4.7-5.4.1-1.7-2.2-3.5-3.5-5-3.5-2.8 0-4.2-2.6-2.5-4.6.6-.8 2.7-1.4 4.6-1.4 2.9 0 4.5-1 9.9-6.2C25.3 3.3 27.4 0 25.2 0c-.4 0-3.7 2.9-7.2 6.5zM.6 26.5c-1 2.8-.7 4.2 1.9 7.3C4.7 36.4 5 37.7 5 44.4c0 4.4.4 7.6 1 7.6s1-3.4 1-8.3c0-7.3-.3-8.7-2.6-11.8-2.4-3.3-2.4-3.4-.5-3.7 1.2-.2 3.5 1.2 6 3.7L14 36v8.1c0 6 .3 8 1.3 7.6.8-.2 1.2-2.8 1.3-7.5.1-3.9.4-7.8.8-8.7.4-1.1-.3-1.9-2.2-2.6-1.5-.5-3.8-2.3-5.2-3.9-3-3.5-8.4-4.9-9.4-2.5z"></path></g></svg><svg fill="currentColor" id="icon-bookmark" viewBox="0 0 16 16"><path d="M2 2a2 2 0 0 1 2-2h8a2 2 0 0 1 2 2v13.5a.5.5 0 0 1-.777.416L8 13.101l-5.223 2.815A.5.5 0 0 1 2 15.5V2zm2-1a1 1 0 0 0-1 1v12.566l4.723-2.482a.5.5 0 0 1 .554 0L13 14.566V2a1 1 0 0 0-1-1H4z"></path></svg><svg id="icon-brain" viewBox="0 0 51 58"><path fill-rule="evenodd" fill="currentColor" d="M50.1 38.399c0 2.111.063 4.118-1.417 5.611.067.413.099.806.099 1.188 0 4.482-3.553 8.269-7.76 8.269l-.102-.002c-1.576 2.778-4.501 4.532-7.659 4.532-3.292 0-6.233-2.018-7.761-4.927-1.528 2.909-4.469 4.927-7.761 4.927-3.158 0-6.083-1.754-7.659-4.532l-.102.002c-4.753 0-8.422-4.757-7.661-9.457A7.96 7.96 0 0 1 0 38.399c0-1.625.502-3.209 1.428-4.544C.48 32.402 0 30.584 0 28.997a7.932 7.932 0 0 1 2.808-6.085 7.82 7.82 0 0 1-.591-2.977c0-3.155 1.803-6.094 4.482-7.468-.405-3.423 1.771-6.597 5.047-7.408 1.274-3.011 4.111-5.062 7.102-5.062 2.784 0 5.28 1.66 6.652 4.082 1.371-2.422 3.868-4.082 6.652-4.082 2.991 0 5.827 2.051 7.102 5.062 3.256.805 5.453 3.964 5.047 7.408 2.679 1.374 4.481 4.313 4.481 7.468 0 1.02-.198 2.018-.591 2.977 1.775 1.497 1.909 3.707 1.909 6.085 0 1.578.424 3.399-.528 4.858.926 1.335.528 2.919.528 4.544Zm-32.361 1.134c2.647 0 5.026 1.192 6.652 3.078V21.067c0-1.247-.994-2.265-2.217-2.265a1.121 1.121 0 0 1-1.109-1.132 1.12 1.12 0 0 1 1.109-1.132c.807 0 1.564.222 2.217.609v-8.88c0-3.198-2.59-6.003-5.543-6.003-1.913 0-3.539 1.202-4.517 2.687a6.55 6.55 0 0 1 3.677 1.907c.433.442.434 1.16.001 1.604a1.093 1.093 0 0 1-1.568 0 4.356 4.356 0 0 0-3.137-1.327c-2.426 0-4.434 2.003-4.434 4.53l.002.09c.366-.058.735-.09 1.106-.09 4.207 0 7.761 3.788 7.761 8.27a1.12 1.12 0 0 1-1.109 1.132 1.119 1.119 0 0 1-1.108-1.132c0-3.198-2.591-6.004-5.544-6.004-3.104 0-5.543 2.947-5.543 6.004 0 .952.25 1.885.742 2.773a1.146 1.146 0 0 1-.371 1.516 5.66 5.66 0 0 0-2.589 4.773c0 3.199 2.535 6.005 5.544 6.005.612 0 1.109.507 1.109 1.133 0 .625-.497 1.132-1.109 1.132-1.746 0-3.4-.669-4.73-1.781a5.662 5.662 0 0 0-.814 2.913c0 1.663.737 3.242 2.021 4.334.325.277.468.717.369 1.137-.962 4.083 2.591 7.735 5.747 7.294.078-.012.156-.021.234-.032.475-.055.93.207 1.131.649 1.09 2.4 3.453 3.951 6.02 3.951 3.606 0 6.652-3.269 6.652-7.136 0-3.748-2.984-6.797-6.652-6.797a1.121 1.121 0 0 1-1.109-1.133 1.12 1.12 0 0 1 1.109-1.133Zm25.5-4.531c3 0 5.543-2.795 5.543-6.005a5.66 5.66 0 0 0-2.588-4.773c-.5-.323-.663-.99-.372-1.516.493-.888.743-1.821.743-2.773 0-3.058-2.441-6.004-5.543-6.004-2.953 0-5.544 2.806-5.544 6.004a1.12 1.12 0 0 1-1.109 1.132 1.119 1.119 0 0 1-1.108-1.132c0-4.482 3.554-8.27 7.761-8.27.371 0 .74.032 1.106.09l.002-.09c0-2.516-1.996-4.53-4.434-4.53-1.185 0-2.299.47-3.137 1.327a1.093 1.093 0 0 1-1.568 0 1.152 1.152 0 0 1 .001-1.604 6.55 6.55 0 0 1 3.677-1.907c-.978-1.485-2.604-2.687-4.517-2.687-2.953 0-5.543 2.805-5.543 6.003v8.88a4.33 4.33 0 0 1 2.217-.609 1.12 1.12 0 0 1 1.109 1.132c0 .625-.497 1.132-1.109 1.132-1.223 0-2.217 1.018-2.217 2.265v21.544c1.626-1.886 4.005-3.078 6.652-3.078a1.12 1.12 0 0 1 1.108 1.133 1.12 1.12 0 0 1-1.108 1.133c-3.668 0-6.652 3.049-6.652 6.797 0 3.867 3.046 7.136 6.652 7.136 2.567 0 4.93-1.551 6.02-3.951a1.104 1.104 0 0 1 1.131-.649c.078.011.156.02.234.032 2.807.39 5.919-2.45 5.919-5.966 0-.407-.055-.829-.172-1.328-.099-.42.044-.86.369-1.137a5.688 5.688 0 0 0 2.02-4.334 5.664 5.664 0 0 0-.813-2.913c-1.33 1.112-2.984 1.781-4.73 1.781a1.121 1.121 0 0 1-1.109-1.132c0-.626.497-1.133 1.109-1.133Zm-2.217 11.327c-2.953 0-5.544 2.807-5.544 6.004 0 .626-.496 1.134-1.109 1.134a1.121 1.121 0 0 1-1.108-1.134c0-4.482 3.554-8.268 7.761-8.268a1.12 1.12 0 0 1 1.108 1.133 1.12 1.12 0 0 1-1.108 1.131Zm-5.389-18.571c.427 1.374 1.687 2.373 3.171 2.373.612 0 1.109.508 1.109 1.133s-.497 1.132-1.109 1.132c-2.7 0-4.955-1.984-5.444-4.598a7.675 7.675 0 0 1-4.164-1.953 1.15 1.15 0 0 1-.088-1.599 1.093 1.093 0 0 1 1.566-.089 5.466 5.466 0 0 0 3.695 1.443c3.057 0 5.544-2.542 5.544-5.665a1.12 1.12 0 0 1 1.109-1.133 1.12 1.12 0 0 1 1.108 1.133c0 3.933-2.817 7.204-6.497 7.823Zm-4.59-16.093a1.12 1.12 0 0 1-1.108-1.132 1.12 1.12 0 0 1 1.108-1.132 1.12 1.12 0 0 1 1.109 1.132 1.12 1.12 0 0 1-1.109 1.132Zm1.109 23.337c3.766 0 6.987 2.113 8.681 5.167a1.146 1.146 0 0 1-.418 1.544 1.097 1.097 0 0 1-1.511-.427c-1.323-2.385-3.836-4.019-6.752-4.019a1.121 1.121 0 0 1-1.109-1.132c0-.626.497-1.133 1.109-1.133ZM16.63 53.467a1.121 1.121 0 0 1-1.108-1.134c0-3.197-2.591-6.004-5.544-6.004a1.12 1.12 0 0 1-1.108-1.131 1.12 1.12 0 0 1 1.108-1.133c4.207 0 7.761 3.786 7.761 8.268 0 .626-.496 1.134-1.109 1.134Zm-4.534-12.181a1.098 1.098 0 0 1-1.512.427c-.532-.309-.719-1-.417-1.546 1.698-3.059 4.924-5.165 8.681-5.165a1.12 1.12 0 0 1 1.108 1.133 1.12 1.12 0 0 1-1.108 1.132c-2.918 0-5.429 1.634-6.752 4.019Zm.1-8.89a1.12 1.12 0 0 1-1.109-1.132c0-.625.496-1.133 1.109-1.133 1.484 0 2.744-.999 3.17-2.373-3.68-.619-6.496-3.89-6.496-7.823a1.12 1.12 0 0 1 1.108-1.133 1.12 1.12 0 0 1 1.109 1.133c0 4.875 5.684 7.472 9.239 4.222a1.092 1.092 0 0 1 1.565.089c.409.467.37 1.182-.087 1.599a7.675 7.675 0 0 1-4.164 1.953c-.49 2.614-2.744 4.598-5.444 4.598Zm7.76-20.731a1.12 1.12 0 0 1-1.108-1.132 1.12 1.12 0 0 1 1.108-1.132 1.12 1.12 0 0 1 1.109 1.132 1.12 1.12 0 0 1-1.109 1.132Z"></path></svg><svg fill="currentColor" id="icon-chat-lightning" viewBox="0 0 16 16"><path d="M0 7.76C0 3.301 3.493 0 8 0s8 3.301 8 7.76-3.493 7.76-8 7.76c-.81 0-1.586-.107-2.316-.307a.639.639 0 0 0-.427.03l-1.588.702a.64.64 0 0 1-.898-.566l-.044-1.423a.639.639 0 0 0-.215-.456C.956 12.108 0 10.092 0 7.76zm5.546-1.459-2.35 3.728c-.225.358.214.761.551.506l2.525-1.916a.48.48 0 0 1 .578-.002l1.869 1.402a1.2 1.2 0 0 0 1.735-.32l2.35-3.728c.226-.358-.214-.761-.551-.506L9.728 7.381a.48.48 0 0 1-.578.002L7.281 5.98a1.2 1.2 0 0 0-1.735.32z"></path></svg><svg id="icon-cutlery" viewBox="0 0 70 69"><path fill-rule="evenodd" fill="currentColor" d="M69.233 16.014c-3.343 3.224-6.468 6.377-8.979 8.909-1.639 1.652-2.933 2.959-3.848 3.839-1.432 1.382-3.624 2.047-6.017 1.825a8.936 8.936 0 0 1-.712-.091 10.678 10.678 0 0 1-5.055-2.332l-7.497 7.342c-.312.3-.736.417-1.134.35a1.313 1.313 0 0 1-.729-.38 1.303 1.303 0 0 1 .028-1.851l7.491-7.336c-3.668-4.399-3.928-9.168-.561-12.414L55.392 1.169a1.32 1.32 0 0 1 1.862.027 1.303 1.303 0 0 1-.027 1.852l-11.446 11.04 2.279 2.269L58.651 6.142a1.321 1.321 0 0 1 1.863.025c.507.519.495 1.35-.028 1.852l-10.563 10.19 2.339 2.329L62.791 10.38a1.325 1.325 0 0 1 1.863.029c.507.519.494 1.35-.028 1.853L54.125 22.391l2.485 2.474 1.768-1.782c2.52-2.543 5.657-5.704 9.021-8.95a1.324 1.324 0 0 1 1.862.028c.507.52.494 1.351-.028 1.853Zm-25.339-.096c-2.791 2.904-.956 6.85 1.737 9.609 1.375 1.41 3.153 2.281 5.002 2.451 1.601.149 3.072-.262 3.938-1.096l.173-.168-10.85-10.796Zm7.951 50.05c-1.263 2.001-3.436 3.12-5.537 2.853-1.098-.141-2.721-.726-4.222-2.716-2.361-3.129-5.315-9.177-8.171-15.025-2.123-4.346-4.31-8.822-6.081-11.707-.297.181-.534.322-.756.453-.633.376-1.179.7-2.818 1.812a2.884 2.884 0 0 1-2.013.484c-1.465-.188-4.023.138-8.019-9.71-1.963-4.843-7.726-21.693-8.464-24.715-1.233-5.043-.88-5.886-.291-6.463.339-.332 1.244-.618 2.004.293 5.473 6.562 41.987 54.356 44.481 58.155 1.212 1.845 1.169 4.256-.113 6.286Zm-2.094-4.853c-2.423-3.69-33.803-44.954-40.395-53.388-.61-.779-1.439-2.145-.66.335 2.006 6.396 8.944 25.87 11.401 29.185 1.525 2.06 1.583 2.74 2.487 2.277.067.007.113 0 .191-.051 1.705-1.158 3.864-2.437 4.748-3.005a1.324 1.324 0 0 1 1.806.366c1.979 2.909 4.397 7.86 6.957 13.101 2.803 5.738 5.7 11.669 7.909 14.597.75.995 1.598 1.579 2.45 1.687 1.085.14 2.25-.506 2.968-1.644.571-.906.907-2.291.138-3.46Zm-28.75-17.433c.438.58.322 1.401-.258 1.835-5.074 3.805-11.8 9.058-16.365 13.645-1.799 1.81-2.013 3.701-.59 5.196 1.362 1.429 3.904 2.005 5.518.582 3.246-2.863 12.868-13.341 18.17-19.271a1.322 1.322 0 0 1 1.86-.111c.544.482.593 1.308.11 1.849-3.843 4.3-14.64 16.184-18.392 19.492-1.498 1.322-3.354 1.687-5.097 1.397-1.566-.257-3.041-1.043-4.082-2.136-1.843-1.935-2.783-5.412.629-8.84 4.687-4.709 11.514-10.042 16.652-13.893a1.323 1.323 0 0 1 1.845.255Z"></path></svg><svg id="icon-dairy" viewBox="0 0 41 41"><path d="M6.8 1.7C6.4 3.1 5.3 4 3.4 4.2l-2.9.3v36h40v-36l-3-.5c-1.6-.3-3-1-3-1.7 0-.6-.3-1.5-.8-1.9-.4-.4-.7.2-.7 1.4 0 1.7-.6 2.2-2.5 2.2-1.8 0-2.5-.5-2.5-2 0-1.1-.4-2-1-2-.5 0-1 .9-1 2 0 2.8-3.8 2.6-5-.3l-.9-2.2v2.2C20 4.8 15 5.1 15 2c0-1.1-.4-2-1-2-.5 0-1 .9-1 2 0 3-4.7 2.8-5.2-.3L7.5-.5l-.7 2.2zM7.1 8l.7 2.5.1-2.8C8 5.5 8.5 5 10.5 5c1.8 0 2.5.5 2.5 2 0 1.1.5 2 1 2 .6 0 1-.9 1-2 0-1.5.7-2 2.5-2 2 0 2.5.5 2.6 2.7l.2 2.8.4-2.8c.3-2.1 1-2.7 2.9-2.7 1.7 0 2.4.5 2.4 2 0 1.1.5 2 1 2 .6 0 1-.9 1-2 0-1.5.7-2 2.5-2 2 0 2.5.5 2.5 2.6 0 1.5.4 2.3 1 1.9.6-.4.9-1.4.8-2.3-.2-1.2.4-1.7 2.1-1.7 2.1 0 2.4.4 2.5 4.8l.1 4.7H2V9.9c0-4.6.2-5 2.2-4.7 1.4.2 2.5 1.3 2.9 2.8zM7 20c0 2.5-.4 3-2.5 3S2 22.5 2 20s.4-3 2.5-3 2.5.5 2.5 3zm8 0c0 2.7-.3 3-3 3s-3-.3-3-3 .3-3 3-3 3 .3 3 3zm9 0c0 2.8-.3 3-3.5 3s-3.5-.2-3.5-3 .3-3 3.5-3 3.5.2 3.5 3zm8 0c0 2.7-.3 3-3 3s-3-.3-3-3 .3-3 3-3 3 .3 3 3zm7.2 0c.4 2.7.2 3-2.4 3-2.4 0-2.8-.4-2.8-3 0-2.5.4-3 2.4-3 1.9 0 2.5.6 2.8 3zM7 28c0 2.5-.4 3-2.5 3S2 30.5 2 28s.4-3 2.5-3 2.5.5 2.5 3zm8 0c0 2.7-.3 3-3 3s-3-.3-3-3 .3-3 3-3 3 .3 3 3zm9 0c0 2.8-.3 3-3.5 3s-3.5-.2-3.5-3 .3-3 3.5-3 3.5.2 3.5 3zm8 0c0 2.7-.3 3-3 3s-3-.3-3-3 .3-3 3-3 3 .3 3 3zm7.5.2c.1 2.4-.3 2.8-2.7 2.8-2.5 0-2.8-.4-2.8-3.1s.3-3 2.7-2.7c2.1.2 2.7.9 2.8 3zM7 36c0 2.5-.4 3-2.5 3S2 38.5 2 36s.4-3 2.5-3 2.5.5 2.5 3zm8 0c0 2.7-.3 3-3 3s-3-.3-3-3 .3-3 3-3 3 .3 3 3zm9 0c0 2.8-.3 3-3.5 3s-3.5-.2-3.5-3 .3-3 3.5-3 3.5.2 3.5 3zm8 0c0 2.7-.3 3-3 3s-3-.3-3-3 .3-3 3-3 3 .3 3 3zm7.5.2c.1 2.4-.3 2.8-2.7 2.8-2.5 0-2.8-.4-2.8-3.1s.3-3 2.7-2.7c2.1.2 2.7.9 2.8 3z" fill="currentColor"></path></svg><svg id="icon-drop" viewBox="0 0 36 46"><path fill-rule="evenodd" fill="currentColor" d="M18.207 45.339c-9.655 0-17.51-7.726-17.51-17.221 0-3.953 2.203-7.807 3.926-10.867a.578.578 0 0 1 .055-.075L17.566 1.9c.168-1.102.427-1.226.7-1.226h.002c.274.001.532.125.7.446L31.8 17.264a17.082 17.082 0 0 1 3.916 10.854c0 9.495-7.855 17.221-17.509 17.221Zm12.2-26.991-.037-.048L18.262 2.964 6.153 18.157c-.023.038-.05.075.577.111-2.977 3.022-4.255 6.259-4.255 9.85 0 8.533 7.057 15.474 15.732 15.474 8.674 0 15.732-6.941 15.732-15.474 0-3.552-1.255-6.158-3.532-9.77Zm-1.742 18.924c-2.964 2.909-6.181 3.697-8.358 3.847-.312.022-.613.032-.899.032-1.884 0-3.153-.406-3.214-.426a.888.888 0 0 1-.564-.552c-.022-.067-.52-1.572-.419-3.735-.074-.04.459-.09.189-.15l-5.66-5.169a.86.86 0 0 1 0-1.233c1.13-.341.909-.341 1.257 0l4.504 4.421c.436-1.914 1.446-3.377 3.648-6.377 2.964-2.71 6.181-3.696 8.359-3.1 2.368-.909 4.042-.376 4.112-.353.292.096.51.33.583 1.463l.002-.838c.33 1.128 1.708 7.018-3.54 12.17Zm1.943-11.062c-.358-.313-1.686-.486-3.051-.381-2.697.511-5.103 1.326-7.151 3.336-2.048 2.009-3.191 4.372-2.706 7.018-.751.735-.724 1.393-.38 1.933l8.532-8.658a.904.904 0 0 1 1.257 0 .862.862 0 0 1 0 1.234l-8.82 8.657c.549.056 1.219.081 1.968.025 2.697-.204 5.103-.894 7.151-3.004 4.062-3.85 3.554-8.764 3.2-10.16Zm-3.75-7.269c-.163.699-.354.185-.545.185.167 0-.527.774-.703-.339l-.025-.032a.862.862 0 0 1 .158-1.224.9.9 0 0 1 1.247.155l.16.032c.166 1.262.095.929-.292 1.223Zm-.888-2.229c-1.035.124-1.227.183-1.417.183-.266 0-.303-.116-.703-.339l-5.106-5.646c-.301-1.2-.23-1.749.158-2.043.388-.295.946-.226 1.247.343l5.106 6.278c.3.381.23.929.715 1.224ZM15.222 28.454c-3.897-3.256-8.062-2.726-9.416-2.254-.355 1.405-.863 6.31 3.694 10.17.8 1.07 1.665 1.469 2.876 2.027.444.205.734.724.426 1.161-.151.315-.471 1.032-.805 1.032-.126 0-.255-.27-.377-.615-1.398-.643-2.701-1.554-3.872-2.703C2.5 32.12 3.879 26.23 4.208 25.102l.003.838c.073-1.133.29-1.367.582-1.463.607-.08 6.113-1.917 11.58 2.647a.86.86 0 0 1 .102 1.228.901.901 0 0 1-1.253.102Z"></path></svg><svg viewBox="0 0 64 64" id="icon-facebook"><path fill="currentColor" d="M48 7H16a8 8 0 0 0-8 8v32a8 8 0 0 0 8 8h17V38h-6v-7h6v-5c0-7 4-11 10-11 3.133 0 5 1 5 1v6h-4c-2.86 0-4 2.093-4 4v5h7l-1 7h-6v17h8a8 8 0 0 0 8-8V15a8 8 0 0 0-8-8z"></path></svg><svg id="icon-fit" viewBox="0 0 47 42"><path fill-rule="evenodd" fill="currentColor" d="M45.443 8.99h-5.544l2.055 2.38c.35.014.35.579 0 .928-.35.349-.594.349-1.268 0l-3.585-3.569a.888.888 0 0 1 0-1.261l3.585-3.571c.674-.348.918-.348 1.268 0 .35.349.35.915 0 1.264l-2.055 2.045h5.544c.495 0 .896.399.896 1.764 0-.379-.401.02-.896.02Zm-5.899 11.347c1.807 6.431-1.38 15.189-4.604 20.428-1.016.217-1.278.347-1.555.347H13.407a.9.9 0 0 1-.709-.348C8.422 35.26 5.37 26.845 7.24 20.33c1.035-3.613 5.457-9.374 4.909-18.43-.013-1.137.075-1.374.244-1.553.169-.178.405.333 1.047.333h20.307c.246 0 .482-.511.651-.333.169.179.257.416.244 1.553.268 9.3 3.884 14.805 4.902 18.437Zm-15.252 18.99h8.647c3.384-4.553 6.163-11.935 5.421-17.573-5.161 1.852-9.73 5.823-14.068 9.095v8.478Zm-10.441 0h8.648v-8.478c-4.307-3.248-8.905-7.245-13.759-9.099-.883 4.462.495 11.434 5.111 17.577Zm-3.528-21.775c-.42.865-.797 1.638-1.099 2.678 5.124 1.711 9.936 6.55 14.172 9.057 4.216-2.367 9.044-7.344 14.167-9.057-.299-1.04-.676-1.814-1.096-2.679-.106-.217-.214-.44-.322-.666-3.919 1.842-8.306 2.811-12.749 2.811-4.444 0-8.831-.969-12.75-2.811l-.323.667ZM32.814 1.853H13.976c.844 4.303-.691 8.625-2.371 12.863-.072.18-.146 1.054-.222.542 4.317 1.74 7.822 2.655 12.013 2.655 4.19 0 8.325-.915 12.012-2.655-.077.492-.152-.365-.223-.544-1.68-4.237-2.476-8.558-2.371-12.861Zm-.631 12.541c-.471.154-.977-.103-.653-.57-.889-1.251-1.234-2.518-1.28-3.264-.329-.985-.021-.58.463-1.564a.895.895 0 0 1 1.064.684c.573 1.188.587 3.07.979 3.588a.892.892 0 0 1-.573 1.126Zm-1.618-7.188c.145 0-.896-.399-.896-.892s1.041-.894.896-.894c1.035 0 .896.401.896.894s.139.892-.896.892Zm-24.46 5.092a.899.899 0 0 1-1.268 0c-.35-.349-.35-.914 0-.928l2.055-2.38H1.348c-.495 0-.896-.399-.896-.02 0-1.365.401-1.764.896-1.764h5.544L4.837 5.161a.892.892 0 0 1 0-1.264.904.904 0 0 1 1.268 0L9.69 7.468c.71.349.71.913 0 1.261l-3.585 3.569Z"></path></svg><svg id="icon-forward-arrow" viewBox="0 0 100 100"><path d="M56.7 22.7c-.4.3-.7 3.9-.7 7.8v7.2l-7.3 1.2c-19.8 3.2-33.6 16.3-38.8 37-3.4 13.5-.9 18.9 3.6 7.7 5.1-12.5 16.2-18.9 36.2-21.1l6.2-.7.3 7.9c.2 6.4.6 7.8 1.9 7.7C59.9 77.3 92 51.3 92 50c0-1-32.7-28-33.9-28-.4 0-1.1.3-1.4.7zm16.8 16.4C80.4 44.7 86 49.6 86 50c0 .7-24.5 21-25.4 21-.3 0-.6-2.8-.8-6.3l-.3-6.2-3.8-.3c-10.1-.8-25.2 3.2-34.1 9.2l-6.4 4.3 1-3c.6-1.6 2.9-5.7 5.2-9.1 6.9-10.2 17-15.8 31.7-17.4l6.4-.7.3-6.3c.2-3.4.5-6.2.8-6.2.2 0 6.1 4.6 12.9 10.1z" fill="currentColor"></path></svg><svg fill="currentColor" id="icon-heart" viewBox="0 0 16 16"><path d="m8 2.748-.717-.737C5.6.281 2.514.878 1.4 3.053c-.523 1.023-.641 2.5.314 4.385.92 1.815 2.834 3.989 6.286 6.357 3.452-2.368 5.365-4.542 6.286-6.357.955-1.886.838-3.362.314-4.385C13.486.878 10.4.28 8.717 2.01L8 2.748zM8 15C-7.333 4.868 3.279-3.04 7.824 1.143c.06.055.119.112.176.171a3.12 3.12 0 0 1 .176-.17C12.72-3.042 23.333 4.867 8 15z"></path></svg><svg id="icon-liver" viewBox="0 0 61 61"><path fill-rule="evenodd" fill="currentColor" d="M60.978 32.33c-.252 6.395-1.953 11.988-5.023 16.585-3.181 4.754-7.669 8.229-13.369 10.344-1.339.522-4.787 1.455-9.039 1.691-.661.033-1.307.048-1.952.048-4.63 0-8.787-.932-12.346-2.78-1.858-.931-3.543-2.434-5.275-4.723l-.016-.016-.031-.031c-1.307-1.769-1.78-2.164-3.024-1.675h-.016c-1.889.726-1.889 4.723-1.889 6.24 0 .694-.567 1.263-1.26 1.263-.693 0-1.26-.569-1.26-1.263 0-2.164 0-7.266 3.512-8.593 3.165-1.249 4.771.948 5.952 2.543l.016.031c1.512 1.975 2.897 3.239 4.409 3.996 0 .016.016.016.016.016 8.204 4.265 18.392 2.038 21.321.932 10.33-3.837 16.282-12.588 16.77-24.656.174-4.787-.756-9.319-2.598-12.794-2.22-4.154-5.606-6.572-10.078-7.155-.22-.031-.457-.031-.709-.031-.85-.017-1.795-.033-2.676-.555-1.748-1.012-6.189-6.205-6.457-10.408a1.254 1.254 0 1 1 2.504-.174c.221 3.237 4.189 7.803 5.197 8.372.015 0 .015.015.031.015.315.19.85.19 1.433.205.283 0 .583 0 .898.032h.063c5.259.695 9.416 3.617 12.014 8.451 2.047 3.87 3.071 8.861 2.882 14.09Zm-40.485 8.686c1.449-.583 2.96-.741 4.252-.821 5.039-.316 9.794-.631 14.487-2.463 2.96-1.137 7.023-3.333 9.653-7.392 1.118-1.975 2.424-2.149 3.102-2.087h.047c1.37.191 2.078 1.565 2.283 2.038 1.465 3.05 1.606 6.745.378 10.173-.96 2.954-2.756 5.671-5.496 8.324-3.621 3.445-7.889 5.828-12.329 6.902a25.66 25.66 0 0 1-6 .728 23.363 23.363 0 0 1-8.125-1.422c-2.142-.791-3.732-1.754-4.85-2.954-1.654-1.817-2.299-4.092-1.795-6.255.504-2.165 2.11-3.902 4.393-4.771Zm-.756 9.304c.819.885 2.126 1.658 3.858 2.306 3.953 1.455 8.33 1.658 12.661.616 4.015-.98 7.889-3.144 11.18-6.287 2.441-2.353 4.015-4.738 4.85-7.296 0 0 .016-.017.016-.033 1.007-2.795.897-5.798-.284-8.244-.016-.016-.031-.031-.031-.047a1.815 1.815 0 0 0-.331-.523 2.506 2.506 0 0 0-.614.791.398.398 0 0 1-.047.078c-1.654 2.574-4.882 6.114-10.881 8.404-5.039 1.973-10.22 2.306-15.212 2.622-1.086.062-2.346.189-3.48.648-.016.015-.016.015-.031.015-1.496.569-2.536 1.659-2.851 3.001-.314 1.342.127 2.779 1.197 3.949Zm16.881-36.188c1.48 1.186.252 3.412-.646 5.04-.126.206-.236.426-.299.536-.236.681-.472 1.359-.693 2.022-.85 2.56-1.748 5.214-3.385 7.615-.977 1.389-3.528 4.8-6.394 6.823-1.354.948-2.818 1.595-4.22 2.227-1.228.536-2.378 1.058-3.464 1.753-.583.379-1.134.791-1.653 1.231-1.386 1.107-2.929 2.37-5.071 2.576-.236.015-.472.047-.708.063-1.323.111-2.378.205-3.465.838-3.779 2.226-4.22 7.234-4.11 12.335v.016c0 .694-.551 1.263-1.244 1.278H1.25a1.261 1.261 0 0 1-1.259-1.247c-.063-3.647-.189-11.245 5.385-14.547 1.591-.933 3.087-1.058 4.52-1.185.22-.016.44-.047.677-.062 1.401-.142 2.535-1.059 3.732-2.039a18.468 18.468 0 0 1 1.889-1.406c1.228-.789 2.535-1.358 3.779-1.926 1.355-.601 2.646-1.184 3.811-1.99 1.748-1.232 3.905-3.554 5.763-6.193 1.433-2.099 2.221-4.454 3.055-6.964.237-.696.473-1.407.725-2.118 0-.016.015-.047.031-.078.095-.207.236-.459.41-.775.22-.394.818-1.5.976-2.069-5.181-4.074-6.204-12.289-6.252-12.637a1.262 1.262 0 0 1 1.103-1.404c.693-.08 1.322.41 1.401 1.105.016.111 1.008 7.834 5.575 11.151.015 0 .031.015.047.031Z"></path></svg><svg id="icon-meal" viewBox="0 0 53 53"><g fill="currentColor"><path d="M38.5 1c-.3.6-.4 2.3 0 3.9.5 2.3.1 3.4-2.1 5.6-2.5 2.5-2.6 3.1-2 8.3.4 3.1.4 10.5 0 16.4-.6 9.5-.9 10.8-2.5 10.8-1.2 0-1.6-.5-1.3-1.4.3-.8.1-2.4-.5-3.5-.8-1.3-.8-2.2-.1-2.6.6-.4 1-1.2.9-1.8-.1-.7.1-2 .6-3 .5-1.2.2-2.4-.8-3.4-1.2-1.2-1.3-2-.4-3.4 1.5-2.5-.4-6.4-4.5-8.9-4.5-2.7-14.1-2.7-18.6 0-4.1 2.5-6 6.4-4.5 8.9.9 1.4.8 2.2-.4 3.4-1 1-1.3 2.2-.8 3.4.5 1 .7 2.3.6 3-.1.6.3 1.4.9 1.8.7.4.7 1.3-.1 2.6-.6 1.1-.8 2.7-.5 3.4.2.7-.2 1.6-1 1.9C.6 46.7 0 48.3 0 50v3h53v-2.8c0-1.5-.5-3.3-1.1-3.9-.7-.7-1.2-7.3-1.3-17.7-.2-14.7-.5-16.8-2.2-18.7-1.1-1.3-1.9-3.6-1.9-5.8 0-3.4-.2-3.6-3.7-3.9-2-.2-3.9.2-4.3.8zm7.3 2.2c-.7 2-5.8 2.3-5.8.4C40 2.5 41 2 43.1 2c2 0 2.9.4 2.7 1.2zm.6 6.4c1.7 2 2.9 4.7 3 6.7l.1 3.2h-14l.3-3.5c.2-2.2 1.2-4.4 2.7-5.8C39.9 9 41 7.5 41 7c0-2 2.6-.7 5.4 2.6zm-20 10.6c1.4 1.3 2.6 3.2 2.8 4.3.3 1.9-.3 2-12.6 2C2.1 26.5.9 25.9 5.8 21c2.8-2.8 3.5-3 10.6-3 6.4 0 7.9.3 10 2.2zm22.4 6.5.3 5.3H37V20.9l5.8.3 5.7.3.3 5.2zM28 29c0 .6-2.8 1-6.3 1s-6.8.5-7.4 1.1c-.8.8-1.7.8-3.1 0-1.1-.6-3-1.1-4.1-1.1-1.2 0-2.1-.5-2.1-1 0-.6 4.5-1 11.5-1s11.5.4 11.5 1zm-17.4 3.5c1.8 1.3 1.5 1.4-2.8 1.5-3.6 0-4.8-.4-4.8-1.5 0-2 5-2 7.6 0zm19.4 0c0 1.2-1.6 1.5-8.2 1.5-7.5-.1-8.1-.2-6.4-1.5 2.8-2.1 14.6-2.1 14.6 0zm19.8 7.4.3 6.1H35.5l.2-6.2c.1-3.5.2-6.3.3-6.3 0 0 3 .1 6.7.1l6.8.2.3 6.1zm-21.2-3.2c-.9 1-23.7 1-24.3 0-.2-.4 5.3-.7 12.3-.7 7 0 12.4.3 12 .7zM26.5 39c1.5.1 1.3.4-.8 1-1.6.5-3.5 1.4-4.2 2-1.1.9-1.9.8-3.7-.4-1.3-1-4.5-1.6-7.8-1.7-3.5-.1-4.7-.3-3.2-.7 2-.6 13-.7 19.7-.2zm-8.3 4.7c1.7 1.5 1.9 1.5 3.6 0 2.7-2.5 7.2-2.2 7.2.3 0 1.9-.7 2-12.5 2S4 45.9 4 44c0-1.8.7-2 6.2-2 4.3 0 6.7.5 8 1.7zm33.6 6c-.3 1.7-2.3 1.8-25.2 1.8-23 0-24.9-.1-25.2-1.8C1.2 48.1 3 48 26.7 48s25.4.1 25.1 1.7z"></path><path d="M45 12.3c0 .2.7 1.8 1.5 3.3 1.3 2.5 1.5 2.6 1.5.8 0-1.2-.7-2.7-1.5-3.4-.8-.7-1.5-1-1.5-.7zM13 20.1c0 .5.5.7 1 .4.6-.3 1-.8 1-1.1 0-.2-.4-.4-1-.4-.5 0-1 .5-1 1.1zM9 21c.8.5 2 1 2.5 1 .6 0 .3-.5-.5-1s-1.9-1-2.5-1c-.5 0-.3.5.5 1zM47.3 40c0 2.5.2 3.5.4 2.2.2-1.2.2-3.2 0-4.5-.2-1.2-.4-.2-.4 2.3z"></path></g></svg><svg id="icon-measure" viewBox="0 0 53 49"><g fill="currentColor"><path d="M15 1.9c-.5 1.1-1 2.6-1 3.5 0 .8-2.4 3.9-5.3 6.8C2.8 18.1 0 24.4 0 31.9c0 4.7 2.8 10.7 5.4 11.7 2.1.8 9.4-3.2 10.1-5.6.3-1.1 1.5-2.5 2.6-3.1 1.6-.8 2.3-.7 3.3.7 1.4 1.9 1.2 4.2-1 9.1-1.7 3.7-1.7 4.3-.4 4.3.6 0 1-.8 1-1.9 0-3.1 2.3-4.3 5.6-3 1.6.6 7.5 1.3 13.2 1.5 8.9.3 10.4.1 10.9-1.3.4-.9.1-1.9-.5-2.1-1.9-.6-1.4-2.2.8-2.2 1.1 0 2-.4 2-.9s-1.2-.6-2.7-.2c-2.2.6-4.2-.1-10.3-3.7-11-6.4-11-6.4-4.8-9.7 4.1-2.2 6.6-2.9 11.4-2.9 3.4-.1 6-.4 5.7-.9-.2-.4-1.3-.7-2.4-.7-1 0-1.9-.5-1.9-1 0-.6 1.1-1 2.5-1s2.5-.5 2.5-1c0-.6-2.6-1-5.7-1-5.9 0-11.8 2.1-17.4 6.1-2.7 1.9-3 1.9-3.6.3-.3-.9-.1-2.5.5-3.5 1.6-2.5 1.5-3.4-.2-2-2.3 2-2.8-.3-2.1-9.7.4-4.8.4-8.4 0-8-.4.4-.9 2.6-1 4.8-.4 4.8-1.1 5.8-2.7 4.2-1.4-1.4-2.8-1.6-2.8-.3 0 .5.9 1.2 1.9 1.6 2.8.9 3.3 6 .7 8.4-2.4 2.1-11.1 6.5-15 7.5-1.4.3-2.6 1-2.6 1.5s.9.7 2.1.4c1.4-.4 2.5.1 3.5 1.6C9.4 31 11 32 12.1 32s1.7.5 1.4 1c-.9 1.5-3.6 1.2-5.7-.7-1.6-1.5-2.1-1.5-2.8-.3-1.7 2.7 1.9 5.3 6.5 4.7l4-.5-3.7 1.7c-4.7 2.2-6.1 3.6-2.8 2.7 2.3-.6 2.3-.6-.3.9-2.7 1.5-3 1.5-4.3-.2C2.2 38.4.8 32 1.5 28.1c1.1-5.7 5.1-12.6 9.8-16.7 3.3-2.9 4.6-4.8 5-7.7.6-4.1.3-4.6-1.3-1.8zm32 17.6c0 .9-.9 1.5-2.5 1.5-2.9 0-3.4-1.6-.7-2.3 3-.8 3.2-.7 3.2.8zm-23 .4c0 .5-.6 1.4-1.4 2-.8.7-1.7 2.5-2.1 4-.9 4.2-7.5 6.7-10.3 3.9-2-2-1.4-2.8 4.1-5.2 2.9-1.3 5.9-3.1 6.6-4 1.5-1.7 3.1-2.1 3.1-.7zm17 .5c0 .5-11.7 6.6-12.6 6.6-1 0 2.3-2.8 5.7-4.9 3.1-1.9 6.9-2.8 6.9-1.7zM26.9 27c1.4 2.2 3.3 4.2 4.3 4.6 1 .3 1.8 1 1.8 1.5s.5.9 1.1.9c1.6 0 8.1 4.1 7.5 4.7-.9.9-11.9-5.8-15.3-9.3-1.8-1.8-3.3-4-3.3-4.9 0-2.5 1.4-1.7 3.9 2.5zM24 29.8c0 1.1-3.7 3.2-4.4 2.5-1.1-1.1-.6-2.1 1.2-2.6 2.8-.8 3.2-.7 3.2.1zm-5.5 3.3c-.4.5-1.3.9-2.2.9-1.3 0-1.3-.3-.3-1.5 1.3-1.5 3.5-1.1 2.5.6zm16.3 4.4c1.9.9 3.2 1.9 2.9 2.2-.9.8-13.1-2.7-14.7-4.2-1.2-1.3-1.2-1.7.5-2.9s2.3-1.1 5 .9c1.6 1.2 4.5 3 6.3 4zM8 34.5c1.1 1.3 1 1.4-.4.9-.9-.3-1.6-1-1.6-1.5 0-1.3.6-1.1 2 .6zM36 41c1.8 0 2.7.5 2.7 1.6 0 1.4-.9 1.6-5.1 1.1-6.9-.7-10.7-2.3-10-4.1.4-1.2 1.2-1.2 5.1 0 2.5.8 5.8 1.4 7.3 1.4zm11.4.4c1.8 1.5 2.4 2.6 1.7 3-.6.4-1.4.1-1.7-.7-.3-.8-1.4-1.7-2.5-2-1-.3-1.9-1-1.9-1.6 0-1.6 1.2-1.3 4.4 1.3zM43 43.1c0 .5-.4.9-1 .9-.5 0-1-.7-1-1.6 0-.8.5-1.2 1-.9.6.3 1 1 1 1.6z"></path><path d="M39 31c0 1.3 2.8 2.5 3.8 1.6.3-.4 0-1.1-.8-1.6-2-1.3-3-1.2-3 0z"></path></g></svg><svg fill="currentColor" id="icon-message" viewBox="0 0 16 16"><path d="M2.678 11.894a1 1 0 0 1 .287.801 10.97 10.97 0 0 1-.398 2c1.395-.323 2.247-.697 2.634-.893a1 1 0 0 1 .71-.074A8.06 8.06 0 0 0 8 14c3.996 0 7-2.807 7-6 0-3.192-3.004-6-7-6S1 4.808 1 8c0 1.468.617 2.83 1.678 3.894zm-.493 3.905a21.682 21.682 0 0 1-.713.129c-.2.032-.352-.176-.273-.362a9.68 9.68 0 0 0 .244-.637l.003-.01c.248-.72.45-1.548.524-2.319C.743 11.37 0 9.76 0 8c0-3.866 3.582-7 8-7s8 3.134 8 7-3.582 7-8 7a9.06 9.06 0 0 1-2.347-.306c-.52.263-1.639.742-3.468 1.105z"></path></svg><svg id="icon-mouse" viewBox="0 0 34 85"><path fill-rule="evenodd" opacity=".561" fill="currentColor" d="M30.542 50.623c-2.993 3.567-7.549 5.374-13.543 5.374-5.399 0-10.549-1.807-13.542-5.374C.449 47.39 0 42.837 0 40.652V15.341c0-2.184.449-6.384 3.457-9.969C6.45 1.806 11.6.2 16.999.2c5.994 0 10.55 1.606 13.543 5.172 3.008 3.585 3.457 7.785 3.457 9.969v25.311c0 2.185-.449 6.738-3.457 9.971ZM14.747 12.315v4.903c0 1.262 1.01 2.289 2.252 2.289 1.242 0 2.253-1.027 2.253-2.289v-4.903c0-.785-1.011-2.045-2.253-2.045-1.242 0-2.252 1.26-2.252 2.045Zm17.474 3.026c0-2.213-.705-13.068-14.333-13.521v6.502c1.796.413 3.412 2.047 3.412 3.993v4.903c0 1.948-1.616 3.581-3.412 3.993v7.423c0 .5-.397.902-.889.902a.894.894 0 0 1-.889-.902v-7.423c-1.796-.412-3.141-2.045-3.141-3.993v-4.903c0-1.946 1.345-3.58 3.141-3.993V1.82C2.483 2.273 1.777 13.128 1.777 15.341v25.311c0 2.261.734 13.539 15.222 13.539 14.489 0 15.222-11.278 15.222-13.539V15.341ZM12.344 64.342c.461-.457 1.212-.459 1.866-.007l3.274 3.379 3.463-3.379a1.202 1.202 0 0 1 1.677.007c1.226.456 1.206 1.193-.006 1.647l-5.134 5.008-5.134-5.008a1.15 1.15 0 0 1-.006-1.647Zm0 6.999c.461-.456 1.212-.459 1.866-.005l3.274 3.378 3.463-3.378a1.2 1.2 0 0 1 1.677.005c1.226.456 1.206 1.194-.006 1.648l-5.134 5.008-5.134-5.008a1.15 1.15 0 0 1-.006-1.648Zm0 7c.461-.456 1.212-.459 1.866-.006l3.274 3.379 3.463-3.379a1.202 1.202 0 0 1 1.677.006c1.226.458 1.206 1.195-.006 1.648l-5.134 5.007-5.134-5.007a1.148 1.148 0 0 1-.006-1.648Z"></path></svg><svg id="icon-muscle" viewBox="0 0 47 49"><path d="M16.1 2.9c-4.1 5.7-2.2 9.3 4.4 8.4 2.4-.3 5.1 0 6.4.6 1.8 1 2.1 2 2.1 8 0 6.7-.1 6.8-2.4 6.4-1.3-.3-3.3 0-4.5.7-1.8.9-3.1.8-6.7-.6-4.2-1.6-4.7-1.6-8-.1C.9 29.4-1.8 37.6 1.5 44c2.2 4.3 4.3 5 15.2 5 8.7 0 10.5-.3 15.9-2.9C40.5 42.4 47 36.6 47 33.3c0-1.3-1.9-6.3-4.1-11C37.8 11.6 30.8 3.8 24.2 1.6c-5.9-2.1-5.7-2.1-8.1 1.3zm8 .6c7.6 2.7 14.4 11.3 19.8 25.1l2 5.2-3.7 3.7c-2 2.1-6.4 5.1-9.7 6.6-5.4 2.6-7 2.9-16.2 2.9-9.8 0-10.2-.1-12.2-2.6-3.8-4.8-2.2-13.3 3-16 3.8-1.9 6.2-1.8 9.3.7 2.4 1.9 2.7 1.9 4.8.5 2.8-2 5.7-2 8.4-.2 2 1.4 2 1.3 1.6-7.2-.3-7.7-.6-9-2.8-10.9-1.9-1.8-3.4-2.2-7-1.9-5.2.4-6.5-1-4.4-5 1.6-2.8 1.5-2.8 7.1-.9z" fill="currentColor"></path></svg><svg fill="currentColor" id="icon-people" viewBox="0 0 16 16"><path d="M7 14s-1 0-1-1 1-4 5-4 5 3 5 4-1 1-1 1H7Zm4-6a3 3 0 1 0 0-6 3 3 0 0 0 0 6Zm-5.784 6A2.238 2.238 0 0 1 5 13c0-1.355.68-2.75 1.936-3.72A6.325 6.325 0 0 0 5 9c-4 0-5 3-5 4s1 1 1 1h4.216ZM4.5 8a2.5 2.5 0 1 0 0-5 2.5 2.5 0 0 0 0 5Z"></path></svg><svg id="icon-percents" viewBox="0 0 38 38"><g fill="currentColor"><path d="M9 2.2C3.8 4.8 0 11.1 0 17c0 4.2 3.5 10.5 7.2 13.3 3.9 2.9 12.3 3.4 17 .9l3.7-1.9 4.2 4.3c2.3 2.4 4.6 4.1 5.2 3.7.5-.3-1.1-2.6-3.6-5.2l-4.5-4.6 2-3c2.5-3.9 2.1-13.3-.8-17.3C27.9 3.8 20.6 0 16.5 0 14.8 0 11.4 1 9 2.2zm15.6 2.9c8.9 5.4 7.8 19.6-2 24.3-4.5 2.1-7.9 2-12.4-.3C1.6 24.6-.1 13.3 6.8 6.7 12 1.8 18.2 1.2 24.6 5.1z"></path><path d="M10.1 11.4c-.9 1.1-1 2-.1 3.5 1.2 2.3 1.8 2.5 3.8 1.2 1.8-1.1 1.1-5.5-.9-5.9-.9-.1-2.1.4-2.8 1.2zm2.5 3.3c-1.1 1.1-1.9-.6-1.1-2.4.8-1.7.8-1.7 1.2 0 .3 1 .2 2.1-.1 2.4zM15.9 16.1c-1.6 3.4-2.8 6.4-2.5 6.7.8.7.9.6 4.5-6.6 1.7-3.4 2.7-6.2 2.1-6.2-.5 0-2.4 2.7-4.1 6.1zM18.4 18.4c-1 2.6.4 4.8 2.8 4.4 1.7-.2 2.3-1 2.3-2.8 0-1.8-.6-2.6-2.3-2.8-1.3-.2-2.5.3-2.8 1.2zM22 20c0 1.1-.4 2-1 2-.5 0-1-.9-1-2s.5-2 1-2c.6 0 1 .9 1 2z"></path></g></svg><svg id="icon-pore" viewBox="0 0 81 64"><path fill-rule="evenodd" fill="currentColor" d="M55.104 43.559c-.698 7.409-7.018 13.08-14.588 13.089-7.57-.009-13.89-5.68-14.588-13.089H.567v-2.616h27.964v1.309c0 6.505 5.366 11.777 11.985 11.777s11.985-5.272 11.985-11.777v-1.309h27.964v2.616H55.104Zm-5.266-1.307c-.007 5.056-4.177 9.153-9.322 9.161-5.145-.008-9.315-4.105-9.321-9.161v-.155c.001-1.352.166-2.7.491-4.015C34.052 26.678 46.775 2.127 47.319 1.086A1.344 1.344 0 0 1 49.11.512c.528.265.815.838.705 1.411-.039.198-3.755 20.004-1.517 30.997a68.865 68.865 0 0 1 1.54 9.332ZM45.912 9.843c-4.056 8.345-10.121 21.541-11.617 28.765a14.386 14.386 0 0 0-.437 3.475v.169c0 3.614 2.981 6.544 6.658 6.544 3.677 0 6.658-2.93 6.658-6.544a64.243 64.243 0 0 0-1.487-8.818c-1.398-6.862-.643-16.647.225-23.591ZM8.557 48.796c2.942 0 5.327 2.342 5.327 5.233 0 2.892-2.385 5.236-5.327 5.236S3.23 56.921 3.23 54.029c0-2.891 2.385-5.233 5.327-5.233Zm0 7.852c1.471 0 2.663-1.172 2.663-2.619 0-1.443-1.192-2.616-2.663-2.616-1.471 0-2.663 1.173-2.663 2.616 0 1.447 1.192 2.619 2.663 2.619Zm11.985-10.471c2.206 0 3.994 1.759 3.994 3.925 0 2.171-1.788 3.927-3.994 3.927-2.207 0-3.995-1.756-3.995-3.927 0-2.166 1.788-3.925 3.995-3.925Zm0 5.236c.735 0 1.331-.587 1.331-1.311 0-.721-.596-1.306-1.331-1.306a1.32 1.32 0 0 0-1.332 1.306c0 .724.596 1.311 1.332 1.311Zm7.989 3.927c2.207 0 3.995 1.756 3.995 3.925 0 2.168-1.788 3.926-3.995 3.926-2.206 0-3.995-1.758-3.995-3.926 0-2.169 1.789-3.925 3.995-3.925Zm0 5.233a1.32 1.32 0 0 0 1.332-1.308c0-.723-.596-1.31-1.332-1.31-.735 0-1.331.587-1.331 1.31a1.32 1.32 0 0 0 1.331 1.308Zm23.97-5.233c2.206 0 3.995 1.756 3.995 3.925 0 2.168-1.789 3.926-3.995 3.926-2.207 0-3.995-1.758-3.995-3.926 0-2.169 1.788-3.925 3.995-3.925Zm0 5.233a1.32 1.32 0 0 0 1.331-1.308c0-.723-.596-1.31-1.331-1.31-.736 0-1.332.587-1.332 1.31a1.32 1.32 0 0 0 1.332 1.308Zm7.989-14.396c2.207 0 3.996 1.759 3.996 3.925 0 2.171-1.789 3.927-3.996 3.927-2.206 0-3.994-1.756-3.994-3.927 0-2.166 1.788-3.925 3.994-3.925Zm0 5.236c.736 0 1.332-.587 1.332-1.311a1.32 1.32 0 0 0-1.332-1.306c-.735 0-1.331.585-1.331 1.306 0 .724.596 1.311 1.331 1.311Zm11.985-2.617c2.942 0 5.327 2.342 5.327 5.233 0 2.892-2.385 5.236-5.327 5.236-2.941 0-5.326-2.344-5.326-5.236 0-2.891 2.385-5.233 5.326-5.233Zm0 7.852c1.471 0 2.664-1.172 2.664-2.619 0-1.443-1.193-2.616-2.664-2.616s-2.663 1.173-2.663 2.616c0 1.447 1.192 2.619 2.663 2.619Z"></path></svg><svg fill="currentColor" id="icon-question" viewBox="0 0 16 16"><path d="M16 8A8 8 0 1 1 0 8a8 8 0 0 1 16 0zM5.496 6.033h.825c.138 0 .248-.113.266-.25.09-.656.54-1.134 1.342-1.134.686 0 1.314.343 1.314 1.168 0 .635-.374.927-.965 1.371-.673.489-1.206 1.06-1.168 1.987l.003.217a.25.25 0 0 0 .25.246h.811a.25.25 0 0 0 .25-.25v-.105c0-.718.273-.927 1.01-1.486.609-.463 1.244-.977 1.244-2.056 0-1.511-1.276-2.241-2.673-2.241-1.267 0-2.655.59-2.75 2.286a.237.237 0 0 0 .241.247zm2.325 6.443c.61 0 1.029-.394 1.029-.927 0-.552-.42-.94-1.029-.94-.584 0-1.009.388-1.009.94 0 .533.425.927 1.01.927z"></path></svg><svg id="icon-scales" viewBox="0 0 42 40"><g fill="currentColor"><path d="M1.7 1.8C.3 3.4 0 6.2 0 20.2c0 14.7.2 16.7 1.8 18.1 2.7 2.5 36.2 2.5 38.6.1C41.7 37.1 42 34 42 20.1c0-15-.2-17-1.8-18.4C38.6.2 35.7 0 20.8 0 5.1 0 3.1.2 1.7 1.8zm37.1.8C40.9 4.1 41 4.7 41 20c0 13.1-.3 16.1-1.6 17.4C38.1 38.7 35 39 21 39-.3 39 1 40.3 1 19.8 1 0-.1 1 20.8 1c12.6 0 16.2.3 18 1.6z"></path><path d="M16.4 4.4c-4.2 1.9-6.6 5.3-5.3 7.8.8 1.5 2.2 1.8 9.8 1.8 10.4 0 12.5-1.2 9.6-5.6-1.6-2.5-7-5.4-9.7-5.4-.7.1-2.7.7-4.4 1.4zm2.5 2.3c.1-.9.6-1.7 1.2-1.7.7 0 1 1.2.7 3-.3 1.6-.1 3 .4 3 .4 0 .8-1.5.9-3.3 0-2.7.2-2.9.9-1.2s.9 1.7.9.2c.1-.9.6-1.7 1.2-1.7.5 0 .7.5.3 1.2-.4.7-.3.8.5.4 1.3-.9 3.5 1.2 3.9 3.6.2 1.5-.5 1.8-4 1.9-5 .2-13.2-.2-13.6-.6-.9-.8 2.4-5.5 3.5-5.1.7.3 1.3 0 1.4-.7 0-.7.4-.3.9.8.7 1.7.9 1.7.9.2z"></path><path d="M14.5 9c.3.5.8 1 1.1 1 .2 0 .4-.5.4-1 0-.6-.5-1-1.1-1-.5 0-.7.4-.4 1zM26 9.1c0 .5.5.7 1 .4.6-.3 1-.8 1-1.1 0-.2-.4-.4-1-.4-.5 0-1 .5-1 1.1z"></path></g></svg><svg id="icon-schedule" viewBox="0 0 35 39"><path fill-rule="evenodd" fill="currentColor" d="M33.905 38.622H1.301c-.334 0-.604-.288-.604-.644V3.212c0-.357.757-1.013 1.091-1.013H5.6L5.527.636c0-.356.27-.036.604-.036h4.227c.334 0 .603-.32.603.036v1.932h13.283V.636c0-.356.27-.036.604-.036h4.902c-.341 0-.072-.32-.072.036l.468 1.563h3.272c.334 0 1.091.656 1.091 1.013v34.766c0 .356-.27.644-.604.644ZM2.879 36.415h29.448V11.27H2.879v25.145ZM9.754 3.212V1.28H6.735v3.863h3.019V3.212Zm18.717 0V1.28h-3.019v3.863h3.019V3.212Zm4.947 1.195h-3.272l-.468 1.38c0 .356-.269.644.072.644h-4.902c-.334 0-.604-.288-.604-.644l-.642-1.38H11.604l-.643 1.38c0 .356-.269.644-.603.644H6.131c-.334 0-.604-.288-.604-.644l.073-1.38H1.788v4.414h31.63V4.407ZM22.433 33.471H6.131V14.8H29.75v18.671h-7.317ZM11.565 16.88H7.339v3.714h4.226V16.88Zm0 5.002H7.339v4.507h4.226v-4.507Zm0 5.795H7.339v4.507h4.226v-4.507Zm5.434-10.797h-4.226v3.714h4.226V16.88Zm0 5.002h-4.226v4.507h4.226v-4.507Zm0 5.795h-4.226v4.507h4.226v-4.507Zm5.434-10.797h-4.226v3.714h4.226V16.88Zm0 5.002h-4.226v4.507h4.226v-4.507Zm0 5.795h-4.226v4.507h4.226v-4.507Zm5.434-10.797h-4.226v3.714h4.226V16.88Zm0 5.002h-4.226v4.507h4.226v-4.507Zm0 5.795h-4.226v4.507h4.226v-4.507Z"></path></svg><svg id="icon-sleep" viewBox="0 0 54 51"><path fill-rule="evenodd" fill="currentColor" d="M53.706 15.264c.196.18.303.439.293.705a.867.867 0 0 1-.293.671 1.282 1.282 0 0 1-.902.227h-6.573a1.52 1.52 0 0 1-1.037-.307 1.075 1.075 0 0 1-.101-1.467c.157-.189.488-.569.992-1.137l1.454-1.625 1.218-1.364.935-1.07c.241-.287.436-.537.587-.749h-3.608a3.605 3.605 0 0 1-1.127-.137c-.256-.083-.384-.318-.384-.704a.84.84 0 0 1 .293-.671c.236-.182.528-.27.823-.251h5.592c.407-.021.814.056 1.184.227a.855.855 0 0 1 .417.819 1.15 1.15 0 0 1-.079.41 1.524 1.524 0 0 1-.18.341l-.271.329-.417.467-4.453 5.013h4.769c.313-.022.623.076.868.273ZM41.192 22.95h-5.231a1.215 1.215 0 0 1-.823-.239.858.858 0 0 1-.079-1.138c.128-.166.394-.476.8-.931l1.128-1.296.969-1.138.744-.841c.203-.239.361-.432.474-.602h-2.886a2.833 2.833 0 0 1-.902-.103c-.203-.075-.305-.265-.305-.569a.672.672 0 0 1 .237-.533.974.974 0 0 1 .654-.205h4.465c.325-.018.65.045.947.182a.686.686 0 0 1 .327.66.903.903 0 0 1-.068.328c-.037.098-.086.19-.147.274l-.214.261-.338.375-3.551 4.002h3.788a.99.99 0 0 1 .699.216.73.73 0 0 1 .236.558.697.697 0 0 1-.225.534c-.2.151-.449.223-.699.205Zm-10.169-5.47h-6.584a1.512 1.512 0 0 1-1.037-.306 1.076 1.076 0 0 1-.102-1.467c.158-.189.489-.568.992-1.137l1.455-1.625 1.251-1.365.924-1.046c.241-.287.436-.538.587-.75h-3.608a3.547 3.547 0 0 1-1.127-.137c-.256-.082-.384-.319-.384-.703a.846.846 0 0 1 .293-.672c.235-.181.528-.27.823-.25h5.536c.407-.021.813.055 1.184.227a.857.857 0 0 1 .417.82 1.143 1.143 0 0 1-.079.408 1.524 1.524 0 0 1-.18.341l-.215.273-.417.466-4.453 5.014h4.735a1.24 1.24 0 0 1 .868.272.914.914 0 0 1 .293.705.867.867 0 0 1-.293.672 1.275 1.275 0 0 1-.879.26Zm17.553 16.667a1.122 1.122 0 0 1 1.241.262c.318.337.398.839.203 1.261a26.32 26.32 0 0 1-13.827 13.337c-13.396 5.551-28.717-.904-34.22-14.412-5.503-13.51.896-28.96 14.292-34.509a1.12 1.12 0 0 1 .917.022c.563.268.804.946.537 1.513a24.34 24.34 0 0 0-.427 19.451c5.059 12.323 19.065 18.176 31.284 13.075ZM14.574 3.429C6.978 7.698 2.268 15.779 2.267 24.547c-.002 13.356 10.732 24.185 23.976 24.186 8.312-.026 16.022-4.376 20.394-11.505a26.036 26.036 0 0 1-7.18 1.012c-14.489 0-26.235-11.844-26.236-26.455a26.273 26.273 0 0 1 1.353-8.356Z"></path></svg><svg fill="currentColor" id="icon-threedots" viewBox="0 0 16 16"><path d="M3 9.5a1.5 1.5 0 1 1 0-3 1.5 1.5 0 0 1 0 3zm5 0a1.5 1.5 0 1 1 0-3 1.5 1.5 0 0 1 0 3zm5 0a1.5 1.5 0 1 1 0-3 1.5 1.5 0 0 1 0 3z"></path></svg><svg id="icon-thumb-up" viewBox="0 0 57 60"><path fill-rule="evenodd" fill="currentColor" d="M54.782 40.639c1.187-1.54 1.757-3.189 1.684-4.891-.072-1.871-.896-3.336-1.575-4.236.788-1.995 1.091-5.135-1.539-7.574-1.926-1.786-5.197-2.587-9.729-2.365-3.186.148-5.852.752-5.96.776h-.013c-.605.111-1.248.247-1.902.395-.048-.789.085-2.749 1.515-7.156 1.696-5.247 1.599-9.262-.315-11.948C34.936.82 31.726.599 30.781.599c-.909 0-1.745.382-2.339 1.084-1.345 1.587-1.187 4.52-1.017 5.874-1.6 4.361-6.083 15.051-9.875 18.018-.073.05-.133.112-.194.173-1.114 1.193-1.866 2.487-2.374 3.622a4.94 4.94 0 0 0-2.399-.617H5.192c-2.787 0-5.04 2.303-5.04 5.124V53.89c0 2.833 2.266 5.126 5.04 5.126h7.391a4.973 4.973 0 0 0 2.907-.938l2.848.343c.436.063 8.19 1.061 16.15.901a53.27 53.27 0 0 0 4.059.172c2.169 0 4.059-.172 5.634-.517 3.707-.801 6.239-2.402 7.524-4.754.981-1.798.981-3.584.824-4.716 2.411-2.218 2.835-4.669 2.75-6.392a8.469 8.469 0 0 0-.497-2.476Zm-49.59 15.05c-.981 0-1.769-.813-1.769-1.799V33.864c0-.997.8-1.796 1.769-1.796h7.391c.981 0 1.769.812 1.769 1.796v20.013c0 .999-.8 1.801-1.769 1.801H5.192v.011Zm46.488-16.49a1.674 1.674 0 0 0-.218 2.006c0 .012.497.875.558 2.057.084 1.614-.679 3.042-2.278 4.261-.57.443-.8 1.207-.557 1.896 0 .012.521 1.639-.328 3.178-.811 1.479-2.617 2.537-5.355 3.129-2.193.48-5.173.566-8.832.27h-.17c-7.79.174-15.926-.414-16.011-.428h-1.31c.073-.345 0-.939 0-1.308V33.319c0-.53.359-.502.214-.983.218-.824.824-2.659 2.253-4.223 5.44-4.385 10.759-19.177 10.989-19.817.097-.258.121-.54.073-.825-.206-1.379-.133-3.067.157-3.571.643.011 2.375.196 3.417 1.661 1.236 1.738 1.188 4.842-.145 8.955-2.036 6.269-2.205 9.569-.594 11.023.8.726 1.866.765 2.641.479.739-.17 1.442-.318 2.109-.428.048-.015.108-.027.157-.039 3.719-.825 10.383-1.33 12.697.812 1.963 1.824.57 4.239.412 4.497-.448.689-.315 1.587.291 2.142.012.014 1.284 1.231 1.345 2.871.048 1.095-.461 2.215-1.515 3.326Z"></path></svg><svg id="icon-time" viewBox="0 0 48 48"><g fill="currentColor"><path d="M23 2.5c0 1.4.5 2.5 1 2.5.6 0 1-1.1 1-2.5S24.6 0 24 0c-.5 0-1 1.1-1 2.5zM7 7.9c0 1.3 2.9 3.5 3.7 2.8.7-.8-1.5-3.7-2.8-3.7-.5 0-.9.4-.9.9zM38 8.5c-.7.9-1 1.8-.7 2.2.8.7 3.7-1.5 3.7-2.8 0-1.4-1.6-1.1-3 .6zM23 14c0 3.3-.5 6.9-1.2 7.9-1.4 2.3-.4 5.1 1.9 5.1.9 0 4.1 2.3 6.9 5.1 2.8 2.8 5.4 4.7 5.7 4.2.4-.5-1.6-3.1-4.3-5.8-2.6-2.6-4.6-5.3-4.4-6 .3-.6-.2-1.8-1.1-2.5-1.1-.9-1.5-3.1-1.5-7.6 0-3.6-.4-6.4-1-6.4s-1 2.7-1 6zM0 24c0 .5 1.1 1 2.5 1S5 24.5 5 24c0-.6-1.1-1-2.5-1S0 23.4 0 24zM43 24c0 .5 1.1 1 2.5 1s2.5-.5 2.5-1c0-.6-1.1-1-2.5-1s-2.5.4-2.5 1zM8 38.5c-.7.9-1 1.8-.7 2.2.8.7 3.7-1.5 3.7-2.8 0-1.4-1.6-1.1-3 .6zM37 37.9c0 1.3 2.9 3.5 3.7 2.8.7-.8-1.5-3.7-2.8-3.7-.5 0-.9.4-.9.9zM23 45.5c0 1.4.5 2.5 1 2.5.6 0 1-1.1 1-2.5s-.4-2.5-1-2.5c-.5 0-1 1.1-1 2.5z"></path></g></svg><svg id="icon-trainer" viewBox="0 0 50 52"><g fill="currentColor"><path d="M40 2.5c-.6 1.4-1 3.1-1 3.6s-2 .9-4.4.9c-2.5 0-4.8.4-5.1 1-.6.9.8 1.4 2.8 1.1.4 0 .7.5.7 1.2 0 1.3-4 13.7-4.4 13.7-.1 0-2.4-.7-5-1.6-2.6-.9-6-1.4-7.6-1.2-3 .5-4-.6-4-4.3 0-1.3.7-1.9 2.1-1.9 1.1 0 1.7-.5 1.4-1-.3-.6-2.8-1-5.5-1s-5.2.4-5.5 1c-.3.6.5 1 1.9 1 2 0 2.7.7 3.5 3.5.8 3.1.6 3.8-1.9 6.5-3.8 4-4.6 9.1-2.3 13.7 3.1 6.2 5.9 7.5 17 8 12.7.6 17.1-.7 19.7-6 1.6-3.4 1.7-4.2.4-7.5-1.2-3.3-5.5-6.6-10.9-8.4-.5-.2.2-3.8 1.7-8.1 2.2-6.5 2.9-7.7 4.8-7.7 1.7 0 2.4-.9 3.3-4 1.2-4.6-.2-6.5-1.7-2.5zM27.3 25.9c4.7 1.6 9.4 3.4 10.4 4 1.5.9 1.3 1-1.4 1.1-1.8 0-3.3.4-3.3 1 0 .5 1.8 1 4 1s4 .4 4 1c0 .5-1.8 1-4 1s-4 .4-4 1c0 .5 1.8 1 4 1s4 .4 4 1c0 .5-1.8 1-4 1s-4 .4-4 1c0 .5 1.4 1 3 1 3.2 0 4 1.4 1.4 2.4-.9.3-6.7.6-13.1.6-11.3 0-11.5 0-14.4-2.9-6.2-6.3-1.7-17.7 7.2-18 .8-.1 5.4 1.2 10.2 2.8z"></path><path d="M14.8 29.7c-2.4.6-3.4 4.9-1.7 6.9.8 1 2.2 1.4 4 1 1.7-.3 3.2 0 3.9.9 1.3 1.6 4 2 4 .7 0-.4-.9-1.3-1.9-1.9-1.1-.7-2.1-2.2-2.3-3.4-.4-2.6-3.6-4.8-6-4.2zm3.5 2.9c.9 1-.4 3.4-1.8 3.4-1.7 0-2.8-1.7-2-3 .7-1.1 2.8-1.3 3.8-.4zM0 51c0 .6 9 1 25 1s25-.4 25-1-9-1-25-1-25 .4-25 1z"></path></g></svg><svg fill="currentColor" id="icon-triangle-down" viewBox="0 0 16 16"><path d="M7.247 11.14 2.451 5.658C1.885 5.013 2.345 4 3.204 4h9.592a1 1 0 0 1 .753 1.659l-4.796 5.48a1 1 0 0 1-1.506 0z"></path></svg><svg fill="currentColor" id="icon-upload" viewBox="0 0 16 16"><path d="M.5 9.9a.5.5 0 0 1 .5.5v2.5a1 1 0 0 0 1 1h12a1 1 0 0 0 1-1v-2.5a.5.5 0 0 1 1 0v2.5a2 2 0 0 1-2 2H2a2 2 0 0 1-2-2v-2.5a.5.5 0 0 1 .5-.5z"></path><path d="M7.646 1.146a.5.5 0 0 1 .708 0l3 3a.5.5 0 0 1-.708.708L8.5 2.707V11.5a.5.5 0 0 1-1 0V2.707L5.354 4.854a.5.5 0 1 1-.708-.708l3-3z"></path></svg></svg>