<svg version="1.0" xmlns="http://www.w3.org/2000/svg" width="62" height="70" viewBox="0 0 526 600" preserveAspectRatio="xMidYMid meet">
	<g transform="translate(0.000000,600.000000) scale(0.1,-0.1)" fill="currentColor" stroke="none">
		<path d="M985 5978 c-23 -20 -31 -46 -65 -208 -143 -691 -356 -1308 -584
-1693 -117 -198 -213 -421 -265 -617 -82 -309 -84 -453 -12 -1060 28 -239 101
-853 161 -1365 60 -511 114 -947 120 -967 12 -41 49 -68 95 -68 39 0 85 50 85
92 -1 18 -56 487 -124 1043 -67 556 -122 1011 -122 1012 1 1 47 -42 101 -95
256 -250 617 -414 995 -453 303 -31 652 58 908 233 l43 29 36 -31 c19 -17 46
-36 59 -42 17 -8 22 -17 19 -32 -3 -12 -77 -371 -166 -800 -176 -855 -172
-818 -106 -853 25 -12 37 -13 69 -4 21 7 45 22 53 34 8 12 86 375 173 805 88
431 162 786 166 789 3 4 9 4 12 0 4 -3 78 -358 166 -789 87 -430 165 -793 173
-805 8 -12 33 -28 55 -34 36 -11 44 -10 68 8 63 47 70 -8 -107 853 -89 432
-164 792 -166 801 -3 10 4 20 19 27 13 6 40 25 60 42 l36 32 63 -40 c270 -170
583 -250 878 -222 388 37 747 199 1007 455 93 93 102 99 97 71 -10 -62 -245
-2016 -245 -2041 0 -35 50 -85 85 -85 39 0 81 26 93 57 13 35 309 2532 332
2803 32 377 -81 799 -329 1225 -233 399 -440 1001 -585 1700 -30 148 -38 173
-61 193 -30 25 -64 28 -104 7 -53 -27 -56 -55 -21 -226 146 -717 370 -1367
611 -1775 300 -508 385 -1061 225 -1460 -140 -346 -505 -619 -960 -716 -134
-28 -362 -31 -484 -5 -297 63 -558 224 -773 477 -80 94 -100 109 -145 110 -36
0 -51 -13 -147 -127 -161 -190 -386 -344 -609 -417 -139 -45 -230 -60 -378
-59 -421 1 -882 225 -1106 538 -204 286 -244 687 -114 1140 53 183 97 280 284
620 173 315 333 757 465 1285 91 362 123 530 110 569 -20 58 -97 79 -144 39z
m1766 -3960 l40 -47 -43 -23 c-55 -29 -153 -31 -220 -5 l-48 19 73 79 c39 44
74 85 76 90 4 12 63 -43 122 -113z" />
		<path d="M2571 5974 c-25 -21 -31 -34 -31 -64 0 -58 35 -95 90 -95 55 0 90 37
90 95 0 30 -6 43 -31 64 -17 15 -43 26 -59 26 -16 0 -42 -11 -59 -26z" />
		<path d="M2565 5595 l-25 -24 0 -761 c0 -526 3 -768 11 -782 6 -11 26 -26 45
-34 29 -12 39 -12 68 0 19 8 39 23 45 34 8 14 11 256 11 782 l0 761 -25 24
c-18 19 -35 25 -65 25 -30 0 -47 -6 -65 -25z" />
		<path d="M2594 3320 c-48 -20 -54 -43 -54 -222 l0 -168 -45 0 c-61 0 -95 -32
-95 -89 0 -34 10 -51 83 -139 81 -98 109 -122 147 -122 38 0 66 24 148 122 72
88 82 105 82 139 0 57 -34 89 -95 89 l-45 0 0 169 c0 162 -1 171 -22 195 -25
29 -72 40 -104 26z" />
		<path d="M3340 2725 c-80 -41 -148 -75 -152 -75 -5 0 -8 6 -8 14 0 8 -11 27
-24 43 -29 34 -92 39 -125 9 -20 -18 -121 -245 -121 -272 0 -29 29 -71 57 -82
44 -18 213 -52 255 -52 74 0 116 86 72 148 -9 13 -14 25 -13 26 2 2 68 36 146
77 118 61 145 79 158 106 9 19 13 43 9 58 -8 32 -59 75 -87 75 -12 -1 -87 -34
-167 -75z" />
		<path d="M1676 2759 c-31 -36 -33 -77 -7 -110 10 -14 82 -57 160 -97 l141 -74
-20 -25 c-39 -50 -17 -123 45 -143 26 -9 54 -6 151 16 162 36 183 49 184 112
0 38 -85 247 -111 273 -46 46 -127 28 -149 -33 l-12 -34 -142 73 c-165 85
-199 91 -240 42z" />
	</g>
</svg>
