<svg xmlns="http://www.w3.org/2000/svg" xmlns:xlink="http://www.w3.org/1999/xlink" width="57" height="60">
	<path fill-rule="evenodd" fill="currentColor" d="M54.782,40.639 C55.969,39.099 56.539,37.450 56.466,35.748 C56.394,33.877 55.570,32.412 54.891,31.512 C55.679,29.517 55.982,26.377 53.352,23.938 C51.426,22.152 48.155,21.351 43.623,21.573 C40.437,21.721 37.771,22.325 37.663,22.349 L37.650,22.349 C37.045,22.460 36.402,22.596 35.748,22.744 C35.700,21.955 35.833,19.995 37.263,15.588 C38.959,10.341 38.862,6.326 36.948,3.640 C34.936,0.820 31.726,0.599 30.781,0.599 C29.872,0.599 29.036,0.981 28.442,1.683 C27.097,3.270 27.255,6.203 27.425,7.557 C25.825,11.918 21.342,22.608 17.550,25.575 C17.477,25.625 17.417,25.687 17.356,25.748 C16.242,26.941 15.490,28.235 14.982,29.370 C14.267,28.976 13.455,28.753 12.583,28.753 L5.192,28.753 C2.405,28.753 0.152,31.056 0.152,33.877 L0.152,53.890 C0.152,56.723 2.418,59.016 5.192,59.016 L12.583,59.016 C13.661,59.016 14.667,58.669 15.490,58.078 L18.338,58.421 C18.774,58.484 26.528,59.482 34.488,59.322 C35.930,59.433 37.287,59.494 38.547,59.494 C40.716,59.494 42.606,59.322 44.181,58.977 C47.888,58.176 50.420,56.575 51.705,54.223 C52.686,52.425 52.686,50.639 52.529,49.507 C54.940,47.289 55.364,44.838 55.279,43.115 C55.230,42.118 55.012,41.267 54.782,40.639 ZM5.192,55.689 C4.211,55.689 3.423,54.876 3.423,53.890 L3.423,33.864 C3.423,32.867 4.223,32.068 5.192,32.068 L12.583,32.068 C13.564,32.068 14.352,32.880 14.352,33.864 L14.352,53.877 C14.352,54.876 13.552,55.678 12.583,55.678 L5.192,55.678 L5.192,55.689 ZM51.680,39.199 C51.171,39.739 51.075,40.564 51.462,41.205 C51.462,41.217 51.959,42.080 52.020,43.262 C52.104,44.876 51.341,46.304 49.742,47.523 C49.172,47.966 48.942,48.730 49.185,49.419 C49.185,49.431 49.706,51.058 48.857,52.597 C48.046,54.076 46.240,55.134 43.502,55.726 C41.309,56.206 38.329,56.292 34.670,55.996 C34.621,55.996 34.561,55.996 34.500,55.996 C26.710,56.170 18.574,55.582 18.489,55.568 L18.489,55.568 L17.179,55.568 C17.252,55.223 17.179,54.629 17.179,54.260 L17.179,33.319 C17.179,32.789 17.538,32.817 17.393,32.336 C17.611,31.512 18.217,29.677 19.646,28.113 C25.086,23.728 30.405,8.936 30.635,8.296 C30.732,8.038 30.756,7.756 30.708,7.471 C30.502,6.092 30.575,4.404 30.865,3.900 C31.508,3.911 33.240,4.096 34.282,5.561 C35.518,7.299 35.470,10.403 34.137,14.516 C32.101,20.785 31.932,24.085 33.543,25.539 C34.343,26.265 35.409,26.304 36.184,26.018 C36.923,25.848 37.626,25.700 38.293,25.590 C38.341,25.575 38.401,25.563 38.450,25.551 C42.169,24.726 48.833,24.221 51.147,26.363 C53.110,28.187 51.717,30.602 51.559,30.860 C51.111,31.549 51.244,32.447 51.850,33.002 C51.862,33.016 53.134,34.233 53.195,35.873 C53.243,36.968 52.734,38.088 51.680,39.199 Z" />
</svg>
