<svg xmlns="http://www.w3.org/2000/svg" xmlns:xlink="http://www.w3.org/1999/xlink" width="51" height="58">
	<path fill-rule="evenodd" fill="currentColor" d="M50.1000,38.399 C50.1000,40.510 50.163,42.517 48.683,44.010 C48.750,44.423 48.782,44.816 48.782,45.198 C48.782,49.680 45.229,53.467 41.022,53.467 C40.987,53.467 40.954,53.466 40.920,53.465 C39.344,56.243 36.419,57.997 33.261,57.997 C29.969,57.997 27.028,55.979 25.500,53.070 C23.972,55.979 21.031,57.997 17.739,57.997 C14.581,57.997 11.656,56.243 10.080,53.465 C10.046,53.466 10.013,53.467 9.978,53.467 C5.225,53.467 1.556,48.710 2.317,44.010 C0.837,42.517 -0.000,40.510 -0.000,38.399 C-0.000,36.774 0.502,35.190 1.428,33.855 C0.480,32.402 -0.000,30.584 -0.000,28.997 C-0.000,26.619 1.034,24.409 2.808,22.912 C2.416,21.953 2.217,20.955 2.217,19.935 C2.217,16.780 4.020,13.841 6.699,12.467 C6.294,9.044 8.470,5.870 11.746,5.059 C13.020,2.048 15.857,-0.003 18.848,-0.003 C21.632,-0.003 24.128,1.657 25.500,4.079 C26.871,1.657 29.368,-0.003 32.152,-0.003 C35.143,-0.003 37.979,2.048 39.254,5.059 C42.510,5.864 44.707,9.023 44.301,12.467 C46.980,13.841 48.782,16.780 48.782,19.935 C48.782,20.955 48.584,21.953 48.191,22.912 C49.966,24.409 50.1000,26.619 50.1000,28.997 C50.1000,30.575 50.524,32.396 49.572,33.855 C50.498,35.190 50.1000,36.774 50.1000,38.399 ZM17.739,39.533 C20.386,39.533 22.765,40.725 24.391,42.611 L24.391,21.067 C24.391,19.820 23.397,18.802 22.174,18.802 C21.562,18.802 21.065,18.295 21.065,17.670 C21.065,17.043 21.562,16.538 22.174,16.538 C22.981,16.538 23.738,16.760 24.391,17.147 L24.391,8.267 C24.391,5.069 21.801,2.264 18.848,2.264 C16.935,2.264 15.309,3.466 14.331,4.951 C15.717,5.167 16.997,5.827 18.008,6.858 C18.441,7.300 18.442,8.018 18.009,8.462 C17.576,8.904 16.874,8.904 16.441,8.462 C15.603,7.605 14.489,7.135 13.304,7.135 C10.878,7.135 8.870,9.138 8.870,11.665 C8.870,11.696 8.872,11.726 8.872,11.755 C9.238,11.697 9.607,11.665 9.978,11.665 C14.185,11.665 17.739,15.453 17.739,19.935 C17.739,20.562 17.243,21.067 16.630,21.067 C16.018,21.067 15.522,20.562 15.522,19.935 C15.522,16.737 12.931,13.931 9.978,13.931 C6.874,13.931 4.435,16.878 4.435,19.935 C4.435,20.887 4.685,21.820 5.177,22.708 C5.469,23.234 5.306,23.901 4.806,24.224 C3.185,25.273 2.217,27.057 2.217,28.997 C2.217,32.196 4.752,35.002 7.761,35.002 C8.373,35.002 8.870,35.509 8.870,36.135 C8.870,36.760 8.373,37.267 7.761,37.267 C6.015,37.267 4.361,36.598 3.031,35.486 C2.502,36.368 2.217,37.372 2.217,38.399 C2.217,40.062 2.954,41.641 4.238,42.733 C4.563,43.010 4.706,43.450 4.607,43.870 C3.645,47.953 7.198,51.605 10.354,51.164 C10.432,51.152 10.510,51.143 10.588,51.132 C11.063,51.077 11.518,51.339 11.719,51.781 C12.809,54.181 15.172,55.732 17.739,55.732 C21.345,55.732 24.391,52.463 24.391,48.596 C24.391,44.848 21.407,41.799 17.739,41.799 C17.127,41.799 16.630,41.292 16.630,40.666 C16.630,40.039 17.127,39.533 17.739,39.533 ZM43.239,35.002 C46.239,35.002 48.782,32.207 48.782,28.997 C48.782,27.057 47.815,25.273 46.194,24.224 C45.694,23.901 45.531,23.234 45.822,22.708 C46.315,21.820 46.565,20.887 46.565,19.935 C46.565,16.877 44.124,13.931 41.022,13.931 C38.069,13.931 35.478,16.737 35.478,19.935 C35.478,20.562 34.982,21.067 34.369,21.067 C33.757,21.067 33.261,20.562 33.261,19.935 C33.261,15.453 36.815,11.665 41.022,11.665 C41.393,11.665 41.762,11.697 42.128,11.755 C42.128,11.726 42.130,11.696 42.130,11.665 C42.130,9.149 40.134,7.135 37.696,7.135 C36.511,7.135 35.397,7.605 34.559,8.462 C34.126,8.904 33.423,8.904 32.991,8.462 C32.558,8.018 32.558,7.300 32.992,6.858 C34.003,5.827 35.283,5.167 36.669,4.951 C35.691,3.466 34.065,2.264 32.152,2.264 C29.199,2.264 26.609,5.069 26.609,8.267 L26.609,17.147 C27.261,16.760 28.019,16.538 28.826,16.538 C29.438,16.538 29.935,17.043 29.935,17.670 C29.935,18.295 29.438,18.802 28.826,18.802 C27.603,18.802 26.609,19.820 26.609,21.067 L26.609,42.611 C28.235,40.725 30.614,39.533 33.261,39.533 C33.873,39.533 34.369,40.039 34.369,40.666 C34.369,41.292 33.873,41.799 33.261,41.799 C29.593,41.799 26.609,44.848 26.609,48.596 C26.609,52.463 29.655,55.732 33.261,55.732 C35.828,55.732 38.191,54.181 39.281,51.781 C39.482,51.339 39.936,51.077 40.412,51.132 C40.490,51.143 40.568,51.152 40.646,51.164 C43.453,51.554 46.565,48.714 46.565,45.198 C46.565,44.791 46.510,44.369 46.393,43.870 C46.294,43.450 46.437,43.010 46.762,42.733 C48.046,41.641 48.782,40.062 48.782,38.399 C48.782,37.373 48.498,36.368 47.969,35.486 C46.639,36.598 44.985,37.267 43.239,37.267 C42.627,37.267 42.130,36.760 42.130,36.135 C42.130,35.509 42.627,35.002 43.239,35.002 ZM41.022,46.329 C38.069,46.329 35.478,49.136 35.478,52.333 C35.478,52.959 34.982,53.467 34.369,53.467 C33.757,53.467 33.261,52.959 33.261,52.333 C33.261,47.851 36.815,44.065 41.022,44.065 C41.634,44.065 42.130,44.571 42.130,45.198 C42.130,45.823 41.634,46.329 41.022,46.329 ZM35.633,27.758 C36.060,29.132 37.320,30.131 38.804,30.131 C39.416,30.131 39.913,30.639 39.913,31.264 C39.913,31.889 39.416,32.396 38.804,32.396 C36.104,32.396 33.849,30.412 33.360,27.798 C31.819,27.591 30.367,26.917 29.196,25.845 C28.739,25.428 28.700,24.713 29.108,24.246 C29.517,23.780 30.218,23.740 30.674,24.157 C31.692,25.088 33.004,25.600 34.369,25.600 C37.426,25.600 39.913,23.058 39.913,19.935 C39.913,19.309 40.409,18.802 41.022,18.802 C41.634,18.802 42.130,19.309 42.130,19.935 C42.130,23.868 39.313,27.139 35.633,27.758 ZM31.043,11.665 C30.431,11.665 29.935,11.159 29.935,10.533 C29.935,9.907 30.431,9.401 31.043,9.401 C31.655,9.401 32.152,9.907 32.152,10.533 C32.152,11.159 31.655,11.665 31.043,11.665 ZM32.152,35.002 C35.918,35.002 39.139,37.115 40.833,40.169 C41.135,40.713 40.948,41.404 40.415,41.713 C39.883,42.021 39.206,41.830 38.904,41.286 C37.581,38.901 35.068,37.267 32.152,37.267 C31.540,37.267 31.043,36.760 31.043,36.135 C31.043,35.509 31.540,35.002 32.152,35.002 ZM16.630,53.467 C16.018,53.467 15.522,52.959 15.522,52.333 C15.522,49.136 12.931,46.329 9.978,46.329 C9.366,46.329 8.870,45.823 8.870,45.198 C8.870,44.571 9.366,44.065 9.978,44.065 C14.185,44.065 17.739,47.851 17.739,52.333 C17.739,52.959 17.243,53.467 16.630,53.467 ZM12.096,41.286 C11.794,41.830 11.117,42.021 10.584,41.713 C10.052,41.404 9.865,40.713 10.167,40.167 C11.865,37.108 15.091,35.002 18.848,35.002 C19.460,35.002 19.956,35.509 19.956,36.135 C19.956,36.760 19.460,37.267 18.848,37.267 C15.930,37.267 13.419,38.901 12.096,41.286 ZM12.196,32.396 C11.583,32.396 11.087,31.889 11.087,31.264 C11.087,30.639 11.583,30.131 12.196,30.131 C13.680,30.131 14.940,29.132 15.366,27.758 C11.686,27.139 8.870,23.868 8.870,19.935 C8.870,19.309 9.366,18.802 9.978,18.802 C10.591,18.802 11.087,19.309 11.087,19.935 C11.087,24.810 16.771,27.407 20.326,24.157 C20.782,23.740 21.483,23.780 21.891,24.246 C22.300,24.713 22.261,25.428 21.804,25.845 C20.633,26.917 19.181,27.591 17.640,27.798 C17.150,30.412 14.896,32.396 12.196,32.396 ZM19.956,11.665 C19.344,11.665 18.848,11.159 18.848,10.533 C18.848,9.907 19.344,9.401 19.956,9.401 C20.569,9.401 21.065,9.907 21.065,10.533 C21.065,11.159 20.569,11.665 19.956,11.665 Z" />
</svg>
