<svg version="1.0" xmlns="http://www.w3.org/2000/svg" width="41" height="41" viewBox="0 0 41 41">
	<g transform="translate(0.000000,41.000000) scale(0.100000,-0.100000)" fill="currentColor" stroke="none">
		<path d="M68 393 c-4 -14 -15 -23 -34 -25 l-29 -3 0 -180 0 -180 200 0 200 0
0 180 0 180 -30 5 c-16 3 -30 10 -30 17 0 6 -3 15 -8 19 -4 4 -7 -2 -7 -14 0
-17 -6 -22 -25 -22 -18 0 -25 5 -25 20 0 11 -4 20 -10 20 -5 0 -10 -9 -10 -20
0 -28 -38 -26 -50 3 l-9 22 0 -22 c-1 -31 -51 -34 -51 -3 0 11 -4 20 -10 20
-5 0 -10 -9 -10 -20 0 -30 -47 -28 -52 3 l-3 22 -7 -22z m3 -63 l7 -25 1 28
c1 22 6 27 26 27 18 0 25 -5 25 -20 0 -11 5 -20 10 -20 6 0 10 9 10 20 0 15 7
20 25 20 20 0 25 -5 26 -27 l2 -28 4 28 c3 21 10 27 29 27 17 0 24 -5 24 -20
0 -11 5 -20 10 -20 6 0 10 9 10 20 0 15 7 20 25 20 20 0 25 -5 25 -26 0 -15 4
-23 10 -19 6 4 9 14 8 23 -2 12 4 17 21 17 21 0 24 -4 25 -48 l1 -47 -187 0
-188 0 0 51 c0 46 2 50 22 47 14 -2 25 -13 29 -28z m-1 -120 c0 -25 -4 -30
-25 -30 -21 0 -25 5 -25 30 0 25 4 30 25 30 21 0 25 -5 25 -30z m80 0 c0 -27
-3 -30 -30 -30 -27 0 -30 3 -30 30 0 27 3 30 30 30 27 0 30 -3 30 -30z m90 0
c0 -28 -3 -30 -35 -30 -32 0 -35 2 -35 30 0 28 3 30 35 30 32 0 35 -2 35 -30z
m80 0 c0 -27 -3 -30 -30 -30 -27 0 -30 3 -30 30 0 27 3 30 30 30 27 0 30 -3
30 -30z m72 0 c4 -27 2 -30 -24 -30 -24 0 -28 4 -28 30 0 25 4 30 24 30 19 0
25 -6 28 -30z m-322 -80 c0 -25 -4 -30 -25 -30 -21 0 -25 5 -25 30 0 25 4 30
25 30 21 0 25 -5 25 -30z m80 0 c0 -27 -3 -30 -30 -30 -27 0 -30 3 -30 30 0
27 3 30 30 30 27 0 30 -3 30 -30z m90 0 c0 -28 -3 -30 -35 -30 -32 0 -35 2
-35 30 0 28 3 30 35 30 32 0 35 -2 35 -30z m80 0 c0 -27 -3 -30 -30 -30 -27 0
-30 3 -30 30 0 27 3 30 30 30 27 0 30 -3 30 -30z m75 -2 c1 -24 -3 -28 -27
-28 -25 0 -28 4 -28 31 0 27 3 30 27 27 21 -2 27 -9 28 -30z m-325 -78 c0 -25
-4 -30 -25 -30 -21 0 -25 5 -25 30 0 25 4 30 25 30 21 0 25 -5 25 -30z m80 0
c0 -27 -3 -30 -30 -30 -27 0 -30 3 -30 30 0 27 3 30 30 30 27 0 30 -3 30 -30z
m90 0 c0 -28 -3 -30 -35 -30 -32 0 -35 2 -35 30 0 28 3 30 35 30 32 0 35 -2
35 -30z m80 0 c0 -27 -3 -30 -30 -30 -27 0 -30 3 -30 30 0 27 3 30 30 30 27 0
30 -3 30 -30z m75 -2 c1 -24 -3 -28 -27 -28 -25 0 -28 4 -28 31 0 27 3 30 27
27 21 -2 27 -9 28 -30z" />
	</g>
</svg>
