<svg version="1.0" xmlns="http://www.w3.org/2000/svg" width="100" height="100" viewBox="0 0 100.000000 100.000000" preserveAspectRatio="xMidYMid meet">
	<g transform="translate(0.000000,100.000000) scale(0.100000,-0.100000)" fill="currentColor" stroke="none">
		<path d="M567 773 c-4 -3 -7 -39 -7 -78 l0 -72 -73 -12 c-198 -32 -336 -163
-388 -370 -34 -135 -9 -189 36 -77 51 125 162 189 362 211 l62 7 3 -79 c2 -64
6 -78 19 -77 18 1 339 261 339 274 0 10 -327 280 -339 280 -4 0 -11 -3 -14 -7z
m168 -164 c69 -56 125 -105 125 -109 0 -7 -245 -210 -254 -210 -3 0 -6 28 -8
63 l-3 62 -38 3 c-101 8 -252 -32 -341 -92 l-64 -43 10 30 c6 16 29 57 52 91
69 102 170 158 317 174 l64 7 3 63 c2 34 5 62 8 62 2 0 61 -46 129 -101z" />
	</g>
</svg>
