<svg version="1.0" xmlns="http://www.w3.org/2000/svg" width="38" height="38" viewBox="0 0 38 38">
	<g transform="translate(0.000000,38.000000) scale(0.100000,-0.100000)" fill="currentColor" stroke="none">
		<path d="M90 358 c-52 -26 -90 -89 -90 -148 0 -42 35 -105 72 -133 39 -29 123
-34 170 -9 l37 19 42 -43 c23 -24 46 -41 52 -37 5 3 -11 26 -36 52 l-45 46 20
30 c25 39 21 133 -8 173 -25 34 -98 72 -139 72 -17 0 -51 -10 -75 -22z m156
-29 c89 -54 78 -196 -20 -243 -45 -21 -79 -20 -124 3 -86 45 -103 158 -34 224
52 49 114 55 178 16z" />
		<path d="M101 266 c-9 -11 -10 -20 -1 -35 12 -23 18 -25 38 -12 18 11 11 55
-9 59 -9 1 -21 -4 -28 -12z m25 -33 c-11 -11 -19 6 -11 24 8 17 8 17 12 0 3
-10 2 -21 -1 -24z" />
		<path d="M159 219 c-16 -34 -28 -64 -25 -67 8 -7 9 -6 45 66 17 34 27 62 21
62 -5 0 -24 -27 -41 -61z" />
		<path d="M184 196 c-10 -26 4 -48 28 -44 17 2 23 10 23 28 0 18 -6 26 -23 28
-13 2 -25 -3 -28 -12z m36 -16 c0 -11 -4 -20 -10 -20 -5 0 -10 9 -10 20 0 11
5 20 10 20 6 0 10 -9 10 -20z" />
	</g>
</svg>
