<svg xmlns="http://www.w3.org/2000/svg" xmlns:xlink="http://www.w3.org/1999/xlink" width="70" height="69">
	<path fill-rule="evenodd" fill="currentColor" d="M69.233,16.014 C65.890,19.238 62.765,22.391 60.254,24.923 C58.615,26.575 57.321,27.882 56.406,28.762 C54.974,30.144 52.782,30.809 50.389,30.587 C50.151,30.566 49.912,30.536 49.677,30.496 C47.843,30.193 46.098,29.386 44.622,28.164 L37.125,35.506 C36.813,35.806 36.389,35.923 35.991,35.856 C35.723,35.812 35.466,35.685 35.262,35.476 C34.755,34.958 34.768,34.129 35.290,33.625 L42.781,26.289 C39.113,21.890 38.853,17.121 42.220,13.875 L55.392,1.169 C55.914,0.665 56.748,0.676 57.254,1.196 C57.762,1.715 57.749,2.544 57.227,3.048 L45.781,14.088 L48.060,16.357 L58.651,6.142 C59.173,5.635 60.008,5.649 60.514,6.167 C61.021,6.686 61.009,7.517 60.486,8.019 L49.923,18.209 L52.262,20.538 L62.791,10.380 C63.313,9.878 64.147,9.890 64.654,10.409 C65.161,10.928 65.148,11.759 64.626,12.262 L54.125,22.391 L56.610,24.865 C57.144,24.327 57.734,23.732 58.378,23.083 C60.898,20.540 64.035,17.379 67.399,14.133 C67.920,13.631 68.754,13.642 69.261,14.161 C69.768,14.681 69.755,15.512 69.233,16.014 ZM43.894,15.918 C41.103,18.822 42.938,22.768 45.631,25.527 C47.006,26.937 48.784,27.808 50.633,27.978 C52.234,28.127 53.705,27.716 54.571,26.882 C54.627,26.829 54.685,26.771 54.744,26.714 L43.894,15.918 ZM51.845,65.968 C50.582,67.969 48.409,69.088 46.308,68.821 C45.210,68.680 43.587,68.095 42.086,66.105 C39.725,62.976 36.771,56.928 33.915,51.080 C31.792,46.734 29.605,42.258 27.834,39.373 C27.537,39.554 27.300,39.695 27.078,39.826 C26.445,40.202 25.899,40.526 24.260,41.638 C23.658,42.046 22.962,42.214 22.247,42.122 C20.782,41.934 18.224,42.260 14.228,32.412 C12.265,27.569 6.502,10.719 5.764,7.697 C4.531,2.654 4.884,1.811 5.473,1.234 C5.812,0.902 6.717,0.616 7.477,1.527 C12.950,8.089 49.464,55.883 51.958,59.682 C53.170,61.527 53.127,63.938 51.845,65.968 ZM49.751,61.115 C47.328,57.425 15.948,16.161 9.356,7.727 C8.746,6.948 7.917,5.582 8.696,8.062 C10.702,14.458 17.640,33.932 20.097,37.247 C21.622,39.307 21.680,39.987 22.584,39.524 C22.651,39.531 22.697,39.524 22.775,39.473 C24.480,38.315 26.639,37.036 27.523,36.468 C27.795,36.294 28.108,36.231 28.406,36.269 C28.768,36.316 29.109,36.509 29.329,36.834 C31.308,39.743 33.726,44.694 36.286,49.935 C39.089,55.673 41.986,61.604 44.195,64.532 C44.945,65.527 45.793,66.111 46.645,66.219 C47.730,66.359 48.895,65.713 49.613,64.575 C50.184,63.669 50.520,62.284 49.751,61.115 ZM21.001,43.682 C21.439,44.262 21.323,45.083 20.743,45.517 C15.669,49.322 8.943,54.575 4.378,59.162 C2.579,60.972 2.365,62.863 3.788,64.358 C5.150,65.787 7.692,66.363 9.306,64.940 C12.552,62.077 22.174,51.599 27.476,45.669 C27.959,45.126 28.792,45.079 29.336,45.558 C29.880,46.040 29.929,46.866 29.446,47.407 C25.603,51.707 14.806,63.591 11.054,66.899 C9.556,68.221 7.700,68.586 5.957,68.296 C4.391,68.039 2.916,67.253 1.875,66.160 C0.032,64.225 -0.908,60.748 2.504,57.320 C7.191,52.611 14.018,47.278 19.156,43.427 C19.737,42.992 20.563,43.105 21.001,43.682 Z" />
</svg>
