<svg version="1.0" xmlns="http://www.w3.org/2000/svg" width="53" height="49" viewBox="0 0 53 49">
	<g transform="translate(0.000000,49.000000) scale(0.100000,-0.100000)" fill="currentColor" stroke="none">
		<path d="M150 471 c-5 -11 -10 -26 -10 -35 0 -8 -24 -39 -53 -68 -59 -59 -87
-122 -87 -197 0 -47 28 -107 54 -117 21 -8 94 32 101 56 3 11 15 25 26 31 16
8 23 7 33 -7 14 -19 12 -42 -10 -91 -17 -37 -17 -43 -4 -43 6 0 10 8 10 19 0
31 23 43 56 30 16 -6 75 -13 132 -15 89 -3 104 -1 109 13 4 9 1 19 -5 21 -19
6 -14 22 8 22 11 0 20 4 20 9 0 5 -12 6 -27 2 -22 -6 -42 1 -103 37 -110 64
-110 64 -48 97 41 22 66 29 114 29 34 1 60 4 57 9 -2 4 -13 7 -24 7 -10 0 -19
5 -19 10 0 6 11 10 25 10 14 0 25 5 25 10 0 6 -26 10 -57 10 -59 0 -118 -21
-174 -61 -27 -19 -30 -19 -36 -3 -3 9 -1 25 5 35 16 25 15 34 -2 20 -23 -20
-28 3 -21 97 4 48 4 84 0 80 -4 -4 -9 -26 -10 -48 -4 -48 -11 -58 -27 -42 -14
14 -28 16 -28 3 0 -5 9 -12 19 -16 28 -9 33 -60 7 -84 -24 -21 -111 -65 -150
-75 -14 -3 -26 -10 -26 -15 0 -5 9 -7 21 -4 14 4 25 -1 35 -16 8 -11 24 -21
35 -21 11 0 17 -5 14 -10 -9 -15 -36 -12 -57 7 -16 15 -21 15 -28 3 -17 -27
19 -53 65 -47 l40 5 -37 -17 c-47 -22 -61 -36 -28 -27 23 6 23 6 -3 -9 -27
-15 -30 -15 -43 2 -22 29 -36 93 -29 132 11 57 51 126 98 167 33 29 46 48 50
77 6 41 3 46 -13 18z m320 -176 c0 -9 -9 -15 -25 -15 -29 0 -34 16 -7 23 30 8
32 7 32 -8z m-230 -4 c0 -5 -6 -14 -14 -20 -8 -7 -17 -25 -21 -40 -9 -42 -75
-67 -103 -39 -20 20 -14 28 41 52 29 13 59 31 66 40 15 17 31 21 31 7z m170
-5 c0 -5 -117 -66 -126 -66 -10 0 23 28 57 49 31 19 69 28 69 17z m-141 -66
c14 -22 33 -42 43 -46 10 -3 18 -10 18 -15 0 -5 5 -9 11 -9 16 0 81 -41 75
-47 -9 -9 -119 58 -153 93 -18 18 -33 40 -33 49 0 25 14 17 39 -25z m-29 -28
c0 -11 -37 -32 -44 -25 -11 11 -6 21 12 26 28 8 32 7 32 -1z m-55 -33 c-4 -5
-13 -9 -22 -9 -13 0 -13 3 -3 15 13 15 35 11 25 -6z m163 -44 c19 -9 32 -19
29 -22 -9 -8 -131 27 -147 42 -12 13 -12 17 5 29 17 12 23 11 50 -9 16 -12 45
-30 63 -40z m-268 30 c11 -13 10 -14 -4 -9 -9 3 -16 10 -16 15 0 13 6 11 20
-6z m280 -65 c18 0 27 -5 27 -16 0 -14 -9 -16 -51 -11 -69 7 -107 23 -100 41
4 12 12 12 51 0 25 -8 58 -14 73 -14z m114 -4 c18 -15 24 -26 17 -30 -6 -4
-14 -1 -17 7 -3 8 -14 17 -25 20 -10 3 -19 10 -19 16 0 16 12 13 44 -13z m-44
-17 c0 -5 -4 -9 -10 -9 -5 0 -10 7 -10 16 0 8 5 12 10 9 6 -3 10 -10 10 -16z" />
		<path d="M390 180 c0 -13 28 -25 38 -16 3 4 0 11 -8 16 -20 13 -30 12 -30 0z" />
	</g>
</svg>
