<svg xmlns="http://www.w3.org/2000/svg" xmlns:xlink="http://www.w3.org/1999/xlink" width="36" height="46">
	<path fill-rule="evenodd" fill="currentColor" d="M18.207,45.339 C8.552,45.339 0.697,37.613 0.697,28.118 C0.697,24.165 2.90,20.311 4.623,17.251 C4.639,17.225 4.658,17.199 4.678,17.176 L17.566,1.9 C17.734,0.798 17.993,0.674 18.266,0.674 C18.266,0.674 18.267,0.674 18.268,0.674 C18.542,0.675 18.800,0.799 18.968,1.12 L31.800,17.264 C31.804,17.268 31.808,17.273 31.812,17.278 C34.330,20.332 35.716,24.180 35.716,28.118 C35.716,37.613 27.861,45.339 18.207,45.339 ZM30.407,18.348 C30.394,18.332 30.382,18.316 30.370,18.300 L18.262,2.964 L6.153,18.157 C6.130,18.195 6.103,18.232 6.73,18.268 C3.753,21.29 2.475,24.527 2.475,28.118 C2.475,36.651 9.532,43.592 18.207,43.592 C26.881,43.592 33.939,36.651 33.939,28.118 C33.939,24.566 32.684,21.96 30.407,18.348 ZM28.665,37.272 C25.701,40.181 22.484,40.969 20.307,41.119 C19.995,41.141 19.694,41.151 19.408,41.151 C17.524,41.151 16.255,40.745 16.194,40.725 C15.928,40.638 15.719,40.432 15.630,40.173 C15.608,40.106 15.110,38.601 15.211,36.438 C15.137,36.398 15.67,36.348 15.4,36.288 L9.740,31.119 C9.393,30.779 9.393,30.226 9.740,29.886 C10.87,29.545 10.649,29.545 10.997,29.886 L15.501,34.307 C15.937,32.393 16.947,30.93 19.149,27.930 C22.113,25.22 25.330,24.234 27.508,24.83 C29.876,23.921 31.550,24.454 31.620,24.477 C31.912,24.573 32.130,24.807 32.203,25.94 L32.205,25.102 C32.535,26.230 33.913,32.120 28.665,37.272 ZM30.608,26.21 C30.25,25.897 28.922,25.724 27.557,25.829 C24.860,26.34 22.454,27.155 20.406,29.165 C18.358,31.174 17.215,33.537 17.7,36.183 C16.949,36.918 16.976,37.576 17.32,38.116 L25.852,29.458 C26.199,29.119 26.762,29.119 27.109,29.458 C27.456,29.799 27.456,30.353 27.109,30.692 L18.289,39.349 C18.838,39.405 19.508,39.430 20.257,39.374 C22.954,39.170 25.360,38.48 27.408,36.37 C31.470,32.52 30.962,27.606 30.608,26.21 ZM26.858,18.941 C26.695,19.64 26.504,19.126 26.313,19.126 C26.48,19.126 25.786,19.9 25.610,18.787 L25.585,18.755 C25.284,18.375 25.355,17.826 25.743,17.531 C26.131,17.236 26.689,17.305 26.990,17.686 L27.15,17.718 C27.316,18.98 27.245,18.647 26.858,18.941 ZM25.97,16.712 C24.935,16.836 24.743,16.895 24.553,16.895 C24.287,16.895 24.25,16.779 23.850,16.556 L18.744,10.91 C18.443,9.710 18.514,9.161 18.902,8.867 C19.290,8.572 19.848,8.641 20.149,9.21 L25.255,15.488 C25.555,15.869 25.485,16.417 25.97,16.712 ZM15.222,28.454 C11.325,25.198 7.160,25.728 5.806,26.20 C5.451,27.605 4.943,32.51 9.5,36.37 C10.30,37.44 11.165,37.839 12.376,38.397 C12.820,38.602 13.11,39.121 12.802,39.558 C12.651,39.873 12.331,40.59 11.997,40.59 C11.871,40.59 11.742,40.32 11.620,39.975 C10.222,39.332 8.919,38.421 7.748,37.272 C2.500,32.120 3.879,26.230 4.208,25.102 L4.211,25.94 C4.284,24.807 4.501,24.573 4.793,24.477 C5.40,24.397 10.906,22.560 16.373,27.124 C16.747,27.436 16.793,27.987 16.475,28.352 C16.157,28.721 15.596,28.764 15.222,28.454 Z" />
</svg>
