<svg xmlns="http://www.w3.org/2000/svg" xmlns:xlink="http://www.w3.org/1999/xlink" width="34" height="85">
	<path fill-rule="evenodd" opacity="0.561" fill="currentColor" d="M30.542,50.623 C27.549,54.190 22.993,55.997 16.999,55.997 C11.6,55.997 6.450,54.190 3.457,50.623 C0.449,47.39 0.0,42.837 0.0,40.652 L0.0,15.341 C0.0,13.157 0.449,8.957 3.457,5.372 C6.450,1.806 11.6,0.2 16.999,0.2 C22.993,0.2 27.549,1.806 30.542,5.372 C33.550,8.957 33.999,13.157 33.999,15.341 L33.999,40.652 C33.999,42.837 33.550,47.39 30.542,50.623 ZM14.747,12.315 L14.747,17.218 C14.747,18.480 15.757,19.507 16.999,19.507 C18.241,19.507 19.252,18.480 19.252,17.218 L19.252,12.315 C19.252,11.53 18.241,10.27 16.999,10.27 C15.757,10.27 14.747,11.53 14.747,12.315 ZM32.221,15.341 C32.221,13.128 31.516,2.273 17.888,1.820 L17.888,8.322 C19.684,8.735 21.30,10.369 21.30,12.315 L21.30,17.218 C21.30,19.166 19.684,20.799 17.888,21.211 L17.888,28.634 C17.888,29.134 17.491,29.536 16.999,29.536 C16.508,29.536 16.110,29.134 16.110,28.634 L16.110,21.211 C14.314,20.799 12.969,19.166 12.969,17.218 L12.969,12.315 C12.969,10.369 14.314,8.735 16.110,8.322 L16.110,1.820 C2.483,2.273 1.777,13.128 1.777,15.341 L1.777,40.652 C1.777,42.913 2.511,54.191 16.999,54.191 C31.488,54.191 32.221,42.913 32.221,40.652 L32.221,15.341 ZM12.344,64.342 C12.805,63.885 13.556,63.883 14.21,64.335 L17.484,67.714 L20.947,64.335 C21.412,63.883 22.162,63.885 22.624,64.342 C23.85,64.798 23.83,65.535 22.618,65.989 L17.484,70.997 L12.350,65.989 C12.116,65.762 11.999,65.461 11.999,65.161 C11.999,64.866 12.114,64.568 12.344,64.342 ZM12.344,71.341 C12.805,70.885 13.556,70.882 14.21,71.336 L17.484,74.714 L20.947,71.336 C21.412,70.882 22.162,70.885 22.624,71.341 C23.85,71.797 23.83,72.535 22.618,72.989 L17.484,77.997 L12.350,72.989 C12.116,72.761 11.999,72.462 11.999,72.161 C11.999,71.866 12.114,71.569 12.344,71.341 ZM12.344,78.341 C12.805,77.885 13.556,77.882 14.21,78.335 L17.484,81.714 L20.947,78.335 C21.412,77.882 22.162,77.885 22.624,78.341 C23.85,78.799 23.83,79.536 22.618,79.989 L17.484,84.996 L12.350,79.989 C12.116,79.762 11.999,79.462 11.999,79.162 C11.999,78.865 12.114,78.569 12.344,78.341 Z" />
</svg>
