<svg xmlns="http://www.w3.org/2000/svg" xmlns:xlink="http://www.w3.org/1999/xlink" width="61" height="61">
	<path fill-rule="evenodd" fill="currentColor" d="M60.978,32.330 C60.726,38.725 59.025,44.318 55.955,48.915 C52.774,53.669 48.286,57.144 42.586,59.259 C41.247,59.781 37.799,60.714 33.547,60.950 C32.886,60.983 32.240,60.998 31.595,60.998 C26.965,60.998 22.808,60.066 19.249,58.218 C17.391,57.287 15.706,55.784 13.974,53.495 L13.958,53.479 L13.927,53.448 C12.620,51.679 12.147,51.284 10.903,51.773 L10.887,51.773 C8.998,52.499 8.998,56.496 8.998,58.013 C8.998,58.707 8.431,59.276 7.738,59.276 C7.045,59.276 6.478,58.707 6.478,58.013 C6.478,55.849 6.478,50.747 9.990,49.420 C13.155,48.171 14.761,50.368 15.942,51.963 L15.958,51.994 C17.470,53.969 18.855,55.233 20.367,55.990 C20.367,56.006 20.383,56.006 20.383,56.006 C28.587,60.271 38.775,58.044 41.704,56.938 C52.034,53.101 57.986,44.350 58.474,32.282 C58.648,27.495 57.718,22.963 55.876,19.488 C53.656,15.334 50.270,12.916 45.798,12.333 C45.578,12.302 45.341,12.302 45.089,12.302 C44.239,12.285 43.294,12.269 42.413,11.747 C40.665,10.735 36.224,5.542 35.956,1.339 C35.909,0.642 36.429,0.044 37.122,-0.003 C37.814,-0.051 38.413,0.470 38.460,1.165 C38.681,4.402 42.649,8.968 43.657,9.537 C43.672,9.537 43.672,9.552 43.688,9.552 C44.003,9.742 44.538,9.742 45.121,9.757 C45.404,9.757 45.704,9.757 46.019,9.789 C46.050,9.789 46.066,9.789 46.082,9.789 C51.341,10.484 55.498,13.406 58.096,18.240 C60.143,22.110 61.167,27.101 60.978,32.330 ZM20.493,41.016 C21.942,40.433 23.453,40.275 24.745,40.195 C29.784,39.879 34.539,39.564 39.232,37.732 C42.192,36.595 46.255,34.399 48.885,30.340 C50.003,28.365 51.309,28.191 51.987,28.253 C52.002,28.253 52.018,28.253 52.034,28.253 C53.404,28.444 54.112,29.818 54.317,30.291 C55.782,33.341 55.923,37.036 54.695,40.464 C53.735,43.418 51.939,46.135 49.199,48.788 C45.578,52.233 41.310,54.616 36.870,55.690 C34.901,56.164 32.886,56.418 30.870,56.418 C28.099,56.433 25.343,55.944 22.745,54.996 C20.603,54.205 19.013,53.242 17.895,52.042 C16.241,50.225 15.596,47.950 16.100,45.787 C16.604,43.622 18.210,41.885 20.493,41.016 ZM19.737,50.320 C20.556,51.205 21.863,51.978 23.595,52.626 C27.548,54.081 31.925,54.284 36.256,53.242 C40.271,52.262 44.145,50.098 47.436,46.955 C49.877,44.602 51.451,42.217 52.286,39.659 C52.286,39.659 52.302,39.642 52.302,39.626 C53.309,36.831 53.199,33.828 52.018,31.382 C52.002,31.366 51.987,31.351 51.987,31.335 C51.908,31.144 51.798,30.970 51.656,30.812 C51.404,31.034 51.184,31.303 51.042,31.603 C51.026,31.634 51.010,31.665 50.995,31.681 C49.341,34.255 46.113,37.795 40.114,40.085 C35.075,42.058 29.894,42.391 24.902,42.707 C23.816,42.769 22.556,42.896 21.422,43.355 C21.406,43.370 21.406,43.370 21.391,43.370 C19.895,43.939 18.855,45.029 18.540,46.371 C18.226,47.713 18.667,49.150 19.737,50.320 ZM36.618,14.132 C38.098,15.318 36.870,17.544 35.972,19.172 C35.846,19.378 35.736,19.598 35.673,19.708 C35.437,20.389 35.201,21.067 34.980,21.730 C34.130,24.290 33.232,26.944 31.595,29.345 C30.618,30.734 28.067,34.145 25.201,36.168 C23.847,37.116 22.383,37.763 20.981,38.395 C19.753,38.931 18.603,39.453 17.517,40.148 C16.934,40.527 16.383,40.939 15.864,41.379 C14.478,42.486 12.935,43.749 10.793,43.955 C10.557,43.970 10.321,44.002 10.085,44.018 C8.762,44.129 7.707,44.223 6.620,44.856 C2.841,47.082 2.400,52.090 2.510,57.191 L2.510,57.207 C2.510,57.901 1.959,58.470 1.266,58.485 L1.250,58.485 C0.558,58.485 0.007,57.933 -0.009,57.238 C-0.072,53.591 -0.198,45.993 5.376,42.691 C6.967,41.758 8.463,41.633 9.896,41.506 C10.116,41.490 10.336,41.459 10.573,41.444 C11.974,41.302 13.108,40.385 14.305,39.405 C14.903,38.900 15.533,38.426 16.194,37.999 C17.422,37.210 18.729,36.641 19.973,36.073 C21.328,35.472 22.619,34.889 23.784,34.083 C25.532,32.851 27.689,30.529 29.547,27.890 C30.980,25.791 31.768,23.436 32.602,20.926 C32.839,20.230 33.075,19.519 33.327,18.808 C33.327,18.792 33.342,18.761 33.358,18.730 C33.453,18.523 33.594,18.271 33.768,17.955 C33.988,17.561 34.586,16.455 34.744,15.886 C29.563,11.812 28.540,3.597 28.492,3.249 C28.414,2.556 28.902,1.923 29.595,1.845 C30.288,1.765 30.917,2.255 30.996,2.950 C31.012,3.061 32.004,10.784 36.571,14.101 C36.586,14.101 36.602,14.116 36.618,14.132 Z" />
</svg>
