<svg xmlns="http://www.w3.org/2000/svg" xmlns:xlink="http://www.w3.org/1999/xlink" width="35" height="39">
	<path fill-rule="evenodd" fill="currentColor" d="M33.905,38.622 L1.301,38.622 C0.967,38.622 0.697,38.334 0.697,37.978 L0.697,10.293 L0.697,3.212 C0.697,2.855 1.454,2.199 1.788,2.199 L5.60,2.199 L5.527,0.636 C5.527,0.280 5.797,0.6 6.131,0.6 L10.358,0.6 C10.692,0.6 10.961,0.280 10.961,0.636 L10.961,2.568 L24.244,2.568 L24.244,0.636 C24.244,0.280 24.514,0.6 24.848,0.6 L29.75,0.6 C29.409,0.6 29.678,0.280 29.678,0.636 L30.146,2.199 L33.418,2.199 C33.752,2.199 34.509,2.855 34.509,3.212 L34.509,10.293 L34.509,37.978 C34.509,38.334 34.239,38.622 33.905,38.622 ZM2.879,36.415 L32.327,36.415 L32.327,11.27 L2.879,11.27 L2.879,36.415 ZM9.754,3.212 L9.754,1.280 L6.735,1.280 L6.735,3.212 L6.735,5.143 L9.754,5.143 L9.754,3.212 ZM28.471,3.212 L28.471,1.280 L25.452,1.280 L25.452,3.212 L25.452,5.143 L28.471,5.143 L28.471,3.212 ZM33.418,4.407 L30.146,4.407 L29.678,5.787 C29.678,6.143 29.409,6.431 29.75,6.431 L24.848,6.431 C24.514,6.431 24.244,6.143 24.244,5.787 L23.602,4.407 L11.604,4.407 L10.961,5.787 C10.961,6.143 10.692,6.431 10.358,6.431 L6.131,6.431 C5.797,6.431 5.527,6.143 5.527,5.787 L5.60,4.407 L1.788,4.407 L1.788,8.821 L33.418,8.821 L33.418,4.407 ZM22.433,33.471 L18.207,33.471 L16.999,33.471 L12.773,33.471 L11.565,33.471 L6.131,33.471 L6.131,27.677 L6.131,26.389 L6.131,21.882 L6.131,20.594 L6.131,14.800 L11.565,14.800 L12.773,14.800 L16.999,14.800 L18.207,14.800 L22.433,14.800 L23.641,14.800 L29.75,14.800 L29.75,20.594 L29.75,21.882 L29.75,26.389 L29.75,27.677 L29.75,33.471 L23.641,33.471 L22.433,33.471 ZM11.565,16.88 L7.339,16.88 L7.339,20.594 L11.565,20.594 L11.565,16.88 ZM11.565,21.882 L7.339,21.882 L7.339,26.389 L11.565,26.389 L11.565,21.882 ZM11.565,27.677 L7.339,27.677 L7.339,32.184 L11.565,32.184 L11.565,27.677 ZM16.999,16.88 L12.773,16.88 L12.773,20.594 L16.999,20.594 L16.999,16.88 ZM16.999,21.882 L12.773,21.882 L12.773,26.389 L16.999,26.389 L16.999,21.882 ZM16.999,27.677 L12.773,27.677 L12.773,32.184 L16.999,32.184 L16.999,27.677 ZM22.433,16.88 L18.207,16.88 L18.207,20.594 L22.433,20.594 L22.433,16.88 ZM22.433,21.882 L18.207,21.882 L18.207,26.389 L22.433,26.389 L22.433,21.882 ZM22.433,27.677 L18.207,27.677 L18.207,32.184 L22.433,32.184 L22.433,27.677 ZM27.867,16.88 L23.641,16.88 L23.641,20.594 L27.867,20.594 L27.867,16.88 ZM27.867,21.882 L23.641,21.882 L23.641,26.389 L27.867,26.389 L27.867,21.882 ZM27.867,27.677 L23.641,27.677 L23.641,32.184 L27.867,32.184 L27.867,27.677 Z" />
</svg>
