<svg version="1.0" xmlns="http://www.w3.org/2000/svg" width="48" height="48" viewBox="0 0 48 48">
	<g transform="translate(0.000000,48.000000) scale(0.100000,-0.100000)" fill="currentColor" stroke="none">
		<path d="M230 455 c0 -14 5 -25 10 -25 6 0 10 11 10 25 0 14 -4 25 -10 25 -5
0 -10 -11 -10 -25z" />
		<path d="M70 401 c0 -13 29 -35 37 -28 7 8 -15 37 -28 37 -5 0 -9 -4 -9 -9z" />
		<path d="M380 395 c-7 -9 -10 -18 -7 -22 8 -7 37 15 37 28 0 14 -16 11 -30 -6z" />
		<path d="M230 340 c0 -33 -5 -69 -12 -79 -14 -23 -4 -51 19 -51 9 0 41 -23 69
-51 28 -28 54 -47 57 -42 4 5 -16 31 -43 58 -26 26 -46 53 -44 60 3 6 -2 18
-11 25 -11 9 -15 31 -15 76 0 36 -4 64 -10 64 -6 0 -10 -27 -10 -60z" />
		<path d="M0 240 c0 -5 11 -10 25 -10 14 0 25 5 25 10 0 6 -11 10 -25 10 -14 0
-25 -4 -25 -10z" />
		<path d="M430 240 c0 -5 11 -10 25 -10 14 0 25 5 25 10 0 6 -11 10 -25 10 -14
0 -25 -4 -25 -10z" />
		<path d="M80 95 c-7 -9 -10 -18 -7 -22 8 -7 37 15 37 28 0 14 -16 11 -30 -6z" />
		<path d="M370 101 c0 -13 29 -35 37 -28 7 8 -15 37 -28 37 -5 0 -9 -4 -9 -9z" />
		<path d="M230 25 c0 -14 5 -25 10 -25 6 0 10 11 10 25 0 14 -4 25 -10 25 -5 0
-10 -11 -10 -25z" />
	</g>
</svg>
