<svg version="1.0" xmlns="http://www.w3.org/2000/svg" width="33" height="52" viewBox="0 0 33 52">
	<g transform="translate(0.000000,52.000000) scale(0.100000,-0.100000)" fill="currentColor" stroke="none">
		<path d="M180 455 c-53 -53 -70 -65 -96 -65 -36 0 -64 -22 -64 -48 0 -28 29
-62 53 -62 13 0 33 -14 50 -35 15 -19 34 -35 42 -35 21 0 48 47 42 72 -5 16 9
36 60 90 37 37 63 71 59 75 -4 4 -39 -24 -77 -63 -60 -62 -69 -77 -69 -108 0
-47 -19 -47 -54 -1 -17 22 -35 35 -50 35 -28 0 -42 26 -25 46 6 8 27 14 46 14
29 0 45 10 99 62 57 55 78 88 56 88 -4 0 -37 -29 -72 -65z" />
		<path d="M6 255 c-10 -28 -7 -42 19 -73 22 -26 25 -39 25 -106 0 -44 4 -76 10
-76 6 0 10 34 10 83 0 73 -3 87 -26 118 -24 33 -24 34 -5 37 12 2 35 -12 60
-37 l41 -41 0 -81 c0 -60 3 -80 13 -76 8 2 12 28 13 75 1 39 4 78 8 87 4 11
-3 19 -22 26 -15 5 -38 23 -52 39 -30 35 -84 49 -94 25z" />
	</g>
</svg>
