<svg version="1.0" xmlns="http://www.w3.org/2000/svg" width="47" height="49" viewBox="0 0 47 49">
	<g transform="translate(0.000000,49.000000) scale(0.100000,-0.100000)" fill="currentColor" stroke="none">
		<path d="M161 461 c-41 -57 -22 -93 44 -84 24 3 51 0 64 -6 18 -10 21 -20 21
-80 0 -67 -1 -68 -24 -64 -13 3 -33 0 -45 -7 -18 -9 -31 -8 -67 6 -42 16 -47
16 -80 1 -65 -31 -92 -113 -59 -177 22 -43 43 -50 152 -50 87 0 105 3 159 29
79 37 144 95 144 128 0 13 -19 63 -41 110 -51 107 -121 185 -187 207 -59 21
-57 21 -81 -13z m80 -6 c76 -27 144 -113 198 -251 l20 -52 -37 -37 c-20 -21
-64 -51 -97 -66 -54 -26 -70 -29 -162 -29 -98 0 -102 1 -122 26 -38 48 -22
133 30 160 38 19 62 18 93 -7 24 -19 27 -19 48 -5 28 20 57 20 84 2 20 -14 20
-13 16 72 -3 77 -6 90 -28 109 -19 18 -34 22 -70 19 -52 -4 -65 10 -44 50 16
28 15 28 71 9z" />
	</g>
</svg>
