<svg version="1.0" xmlns="http://www.w3.org/2000/svg" width="50" height="52" viewBox="0 0 50 52">
	<g transform="translate(0.000000,52.000000) scale(0.100000,-0.100000)" fill="currentColor" stroke="none">
		<path d="M400 495 c-6 -14 -10 -31 -10 -36 0 -5 -20 -9 -44 -9 -25 0 -48 -4
-51 -10 -6 -9 8 -14 28 -11 4 0 7 -5 7 -12 0 -13 -40 -137 -44 -137 -1 0 -24
7 -50 16 -26 9 -60 14 -76 12 -30 -5 -40 6 -40 43 0 13 7 19 21 19 11 0 17 5
14 10 -3 6 -28 10 -55 10 -27 0 -52 -4 -55 -10 -3 -6 5 -10 19 -10 20 0 27 -7
35 -35 8 -31 6 -38 -19 -65 -38 -40 -46 -91 -23 -137 31 -62 59 -75 170 -80
127 -6 171 7 197 60 16 34 17 42 4 75 -12 33 -55 66 -109 84 -5 2 2 38 17 81
22 65 29 77 48 77 17 0 24 9 33 40 12 46 -2 65 -17 25z m-127 -234 c47 -16 94
-34 104 -40 15 -9 13 -10 -14 -11 -18 0 -33 -4 -33 -10 0 -5 18 -10 40 -10 22
0 40 -4 40 -10 0 -5 -18 -10 -40 -10 -22 0 -40 -4 -40 -10 0 -5 18 -10 40 -10
22 0 40 -4 40 -10 0 -5 -18 -10 -40 -10 -22 0 -40 -4 -40 -10 0 -5 14 -10 30
-10 32 0 40 -14 14 -24 -9 -3 -67 -6 -131 -6 -113 0 -115 0 -144 29 -62 63
-17 177 72 180 8 1 54 -12 102 -28z" />
		<path d="M148 223 c-24 -6 -34 -49 -17 -69 8 -10 22 -14 40 -10 17 3 32 0 39
-9 13 -16 40 -20 40 -7 0 4 -9 13 -19 19 -11 7 -21 22 -23 34 -4 26 -36 48
-60 42z m35 -29 c9 -10 -4 -34 -18 -34 -17 0 -28 17 -20 30 7 11 28 13 38 4z" />
		<path d="M0 10 c0 -6 90 -10 250 -10 160 0 250 4 250 10 0 6 -90 10 -250 10
-160 0 -250 -4 -250 -10z" />
	</g>
</svg>
