<svg version="1.0" xmlns="http://www.w3.org/2000/svg" width="53" height="53" viewBox="0 0 53 53">
	<g transform="translate(0.000000,53.000000) scale(0.100000,-0.100000)" fill="currentColor" stroke="none">
		<path d="M385 520 c-3 -6 -4 -23 0 -39 5 -23 1 -34 -21 -56 -25 -25 -26 -31
-20 -83 4 -31 4 -105 0 -164 -6 -95 -9 -108 -25 -108 -12 0 -16 5 -13 14 3 8
1 24 -5 35 -8 13 -8 22 -1 26 6 4 10 12 9 18 -1 7 1 20 6 30 5 12 2 24 -8 34
-12 12 -13 20 -4 34 15 25 -4 64 -45 89 -45 27 -141 27 -186 0 -41 -25 -60
-64 -45 -89 9 -14 8 -22 -4 -34 -10 -10 -13 -22 -8 -34 5 -10 7 -23 6 -30 -1
-6 3 -14 9 -18 7 -4 7 -13 -1 -26 -6 -11 -8 -27 -5 -34 2 -7 -2 -16 -10 -19
-8 -3 -14 -19 -14 -36 l0 -30 265 0 265 0 0 28 c0 15 -5 33 -11 39 -7 7 -12
73 -13 177 -2 147 -5 168 -22 187 -11 13 -19 36 -19 58 0 34 -2 36 -37 39 -20
2 -39 -2 -43 -8z m73 -22 c-7 -20 -58 -23 -58 -4 0 11 10 16 31 16 20 0 29 -4
27 -12z m6 -64 c17 -20 29 -47 30 -67 l1 -32 -70 0 -70 0 3 35 c2 22 12 44 27
58 14 12 25 27 25 32 0 20 26 7 54 -26z m-200 -106 c14 -13 26 -32 28 -43 3
-19 -3 -20 -126 -20 -145 0 -157 6 -108 55 28 28 35 30 106 30 64 0 79 -3 100
-22z m224 -65 l3 -53 -60 0 -61 0 0 55 0 56 58 -3 57 -3 3 -52z m-208 -23 c0
-6 -28 -10 -63 -10 -35 0 -68 -5 -74 -11 -8 -8 -17 -8 -31 0 -11 6 -30 11 -41
11 -12 0 -21 5 -21 10 0 6 45 10 115 10 70 0 115 -4 115 -10z m-174 -35 c18
-13 15 -14 -28 -15 -36 0 -48 4 -48 15 0 20 50 20 76 0z m194 0 c0 -12 -16
-15 -82 -15 -75 1 -81 2 -64 15 28 21 146 21 146 0z m198 -74 l3 -61 -73 0
-73 0 2 62 c1 35 2 63 3 63 0 0 30 -1 67 -1 l68 -2 3 -61z m-212 32 c-9 -10
-237 -10 -243 0 -2 4 53 7 123 7 70 0 124 -3 120 -7z m-21 -23 c15 -1 13 -4
-8 -10 -16 -5 -35 -14 -42 -20 -11 -9 -19 -8 -37 4 -13 10 -45 16 -78 17 -35
1 -47 3 -32 7 20 6 130 7 197 2z m-83 -47 c17 -15 19 -15 36 0 27 25 72 22 72
-3 0 -19 -7 -20 -125 -20 -118 0 -125 1 -125 20 0 18 7 20 62 20 43 0 67 -5
80 -17z m336 -60 c-3 -17 -23 -18 -252 -18 -230 0 -249 1 -252 18 -2 16 16 17
253 17 237 0 254 -1 251 -17z" />
		<path d="M450 407 c0 -2 7 -18 15 -33 13 -25 15 -26 15 -8 0 12 -7 27 -15 34
-8 7 -15 10 -15 7z" />
		<path d="M130 329 c0 -5 5 -7 10 -4 6 3 10 8 10 11 0 2 -4 4 -10 4 -5 0 -10
-5 -10 -11z" />
		<path d="M90 320 c8 -5 20 -10 25 -10 6 0 3 5 -5 10 -8 5 -19 10 -25 10 -5 0
-3 -5 5 -10z" />
		<path d="M473 130 c0 -25 2 -35 4 -22 2 12 2 32 0 45 -2 12 -4 2 -4 -23z" />
	</g>
</svg>
