<svg version="1.0" xmlns="http://www.w3.org/2000/svg" width="42" height="40" viewBox="0 0 42 40">
	<g transform="translate(0.000000,40.000000) scale(0.100000,-0.100000)" fill="currentColor" stroke="none">
		<path d="M17 382 c-14 -16 -17 -44 -17 -184 0 -147 2 -167 18 -181 27 -25 362
-25 386 -1 13 13 16 44 16 183 0 150 -2 170 -18 184 -16 15 -45 17 -194 17
-157 0 -177 -2 -191 -18z m371 -8 c21 -15 22 -21 22 -174 0 -131 -3 -161 -16
-174 -13 -13 -44 -16 -184 -16 -213 0 -200 -13 -200 192 0 198 -11 188 198
188 126 0 162 -3 180 -16z" />
		<path d="M164 356 c-42 -19 -66 -53 -53 -78 8 -15 22 -18 98 -18 104 0 125 12
96 56 -16 25 -70 54 -97 54 -7 -1 -27 -7 -44 -14z m25 -23 c1 9 6 17 12 17 7
0 10 -12 7 -30 -3 -16 -1 -30 4 -30 4 0 8 15 9 33 0 27 2 29 9 12 7 -17 9 -17
9 -2 1 9 6 17 12 17 5 0 7 -5 3 -12 -4 -7 -3 -8 5 -4 13 9 35 -12 39 -36 2
-15 -5 -18 -40 -19 -50 -2 -132 2 -136 6 -9 8 24 55 35 51 7 -3 13 0 14 7 0 7
4 3 9 -8 7 -17 9 -17 9 -2z" />
		<path d="M145 310 c3 -5 8 -10 11 -10 2 0 4 5 4 10 0 6 -5 10 -11 10 -5 0 -7
-4 -4 -10z" />
		<path d="M260 309 c0 -5 5 -7 10 -4 6 3 10 8 10 11 0 2 -4 4 -10 4 -5 0 -10
-5 -10 -11z" />
	</g>
</svg>
