<svg xmlns="http://www.w3.org/2000/svg" xmlns:xlink="http://www.w3.org/1999/xlink" width="81" height="64">
	<path fill-rule="evenodd" fill="currentColor" d="M55.104,43.559 C54.406,50.968 48.086,56.639 40.516,56.648 C32.946,56.639 26.626,50.968 25.928,43.559 L0.567,43.559 L0.567,40.943 L28.531,40.943 L28.531,42.252 C28.531,48.757 33.897,54.029 40.516,54.029 C47.135,54.029 52.501,48.757 52.501,42.252 L52.501,40.943 L80.465,40.943 L80.465,43.559 L55.104,43.559 ZM49.838,42.252 C49.831,47.308 45.661,51.405 40.516,51.413 C35.371,51.405 31.201,47.308 31.195,42.252 L31.195,42.097 C31.196,40.745 31.361,39.397 31.686,38.082 C34.052,26.678 46.775,2.127 47.319,1.086 C47.653,0.442 48.454,0.184 49.110,0.512 C49.638,0.777 49.925,1.350 49.815,1.923 C49.776,2.121 46.060,21.927 48.298,32.920 C49.025,35.992 49.539,39.111 49.838,42.252 ZM45.912,9.843 C41.856,18.188 35.791,31.384 34.295,38.608 C34.008,39.745 33.862,40.910 33.858,42.083 L33.858,42.252 C33.858,45.866 36.839,48.796 40.516,48.796 C44.193,48.796 47.174,45.866 47.174,42.252 C46.884,39.282 46.387,36.337 45.687,33.434 C44.289,26.572 45.044,16.787 45.912,9.843 ZM8.557,48.796 C11.499,48.796 13.884,51.138 13.884,54.029 C13.884,56.921 11.499,59.265 8.557,59.265 C5.615,59.265 3.230,56.921 3.230,54.029 C3.230,51.138 5.615,48.796 8.557,48.796 ZM8.557,56.648 C10.028,56.648 11.220,55.476 11.220,54.029 C11.220,52.586 10.028,51.413 8.557,51.413 C7.086,51.413 5.894,52.586 5.894,54.029 C5.894,55.476 7.086,56.648 8.557,56.648 ZM20.542,46.177 C22.748,46.177 24.536,47.936 24.536,50.102 C24.536,52.273 22.748,54.029 20.542,54.029 C18.335,54.029 16.547,52.273 16.547,50.102 C16.547,47.936 18.335,46.177 20.542,46.177 ZM20.542,51.413 C21.277,51.413 21.873,50.826 21.873,50.102 C21.873,49.381 21.277,48.796 20.542,48.796 C19.806,48.796 19.210,49.381 19.210,50.102 C19.210,50.826 19.806,51.413 20.542,51.413 ZM28.531,55.340 C30.738,55.340 32.526,57.096 32.526,59.265 C32.526,61.433 30.738,63.191 28.531,63.191 C26.325,63.191 24.536,61.433 24.536,59.265 C24.536,57.096 26.325,55.340 28.531,55.340 ZM28.531,60.573 C29.267,60.573 29.863,59.986 29.863,59.265 C29.863,58.542 29.267,57.955 28.531,57.955 C27.796,57.955 27.200,58.542 27.200,59.265 C27.200,59.986 27.796,60.573 28.531,60.573 ZM52.501,55.340 C54.707,55.340 56.496,57.096 56.496,59.265 C56.496,61.433 54.707,63.191 52.501,63.191 C50.294,63.191 48.506,61.433 48.506,59.265 C48.506,57.096 50.294,55.340 52.501,55.340 ZM52.501,60.573 C53.236,60.573 53.832,59.986 53.832,59.265 C53.832,58.542 53.236,57.955 52.501,57.955 C51.765,57.955 51.169,58.542 51.169,59.265 C51.169,59.986 51.765,60.573 52.501,60.573 ZM60.490,46.177 C62.697,46.177 64.486,47.936 64.486,50.102 C64.486,52.273 62.697,54.029 60.490,54.029 C58.284,54.029 56.496,52.273 56.496,50.102 C56.496,47.936 58.284,46.177 60.490,46.177 ZM60.490,51.413 C61.226,51.413 61.822,50.826 61.822,50.102 C61.822,49.381 61.226,48.796 60.490,48.796 C59.755,48.796 59.159,49.381 59.159,50.102 C59.159,50.826 59.755,51.413 60.490,51.413 ZM72.475,48.796 C75.417,48.796 77.802,51.138 77.802,54.029 C77.802,56.921 75.417,59.265 72.475,59.265 C69.534,59.265 67.149,56.921 67.149,54.029 C67.149,51.138 69.534,48.796 72.475,48.796 ZM72.475,56.648 C73.946,56.648 75.139,55.476 75.139,54.029 C75.139,52.586 73.946,51.413 72.475,51.413 C71.004,51.413 69.812,52.586 69.812,54.029 C69.812,55.476 71.004,56.648 72.475,56.648 Z" />
</svg>
