<svg xmlns="http://www.w3.org/2000/svg" xmlns:xlink="http://www.w3.org/1999/xlink" width="54" height="51">
	<path fill-rule="evenodd" fill="currentColor" d="M53.706,15.264 C53.902,15.444 54.009,15.703 53.999,15.969 C54.005,16.225 53.898,16.471 53.706,16.640 C53.444,16.826 53.122,16.907 52.804,16.867 L46.231,16.867 C45.860,16.895 45.492,16.787 45.194,16.560 C44.779,16.176 44.735,15.532 45.093,15.093 C45.250,14.904 45.581,14.524 46.085,13.956 L47.539,12.331 L48.757,10.967 L49.692,9.897 C49.933,9.610 50.128,9.360 50.279,9.148 L46.671,9.148 C46.290,9.163 45.910,9.115 45.544,9.011 C45.288,8.928 45.160,8.693 45.160,8.307 C45.151,8.048 45.259,7.801 45.453,7.636 C45.689,7.454 45.981,7.366 46.276,7.385 L51.868,7.385 C52.275,7.364 52.682,7.441 53.052,7.612 C53.338,7.781 53.501,8.099 53.469,8.431 C53.468,8.572 53.441,8.710 53.390,8.841 C53.345,8.962 53.284,9.076 53.210,9.182 L52.939,9.511 L52.522,9.978 L48.069,14.991 L52.838,14.991 C53.151,14.969 53.461,15.067 53.706,15.264 ZM41.192,22.950 L35.961,22.950 C35.667,22.973 35.374,22.888 35.138,22.711 C34.827,22.407 34.793,21.918 35.059,21.573 C35.187,21.407 35.453,21.097 35.859,20.642 L36.987,19.346 L37.956,18.208 L38.700,17.367 C38.903,17.128 39.061,16.935 39.174,16.765 L36.288,16.765 C35.984,16.779 35.679,16.745 35.386,16.662 C35.183,16.587 35.081,16.397 35.081,16.093 C35.075,15.888 35.162,15.692 35.318,15.560 C35.505,15.415 35.737,15.341 35.972,15.355 L40.437,15.355 C40.762,15.337 41.087,15.400 41.384,15.537 C41.611,15.673 41.739,15.931 41.711,16.197 C41.709,16.309 41.686,16.421 41.643,16.525 C41.606,16.623 41.557,16.715 41.496,16.799 L41.282,17.060 L40.944,17.435 L37.393,21.437 L41.181,21.437 C41.432,21.417 41.682,21.494 41.880,21.653 C42.035,21.795 42.122,21.999 42.116,22.211 C42.122,22.413 42.040,22.608 41.891,22.745 C41.691,22.896 41.442,22.968 41.192,22.950 ZM31.023,17.480 L24.439,17.480 C24.068,17.509 23.699,17.401 23.402,17.174 C22.987,16.789 22.942,16.145 23.300,15.707 C23.458,15.518 23.789,15.139 24.292,14.570 L25.747,12.945 L26.998,11.580 L27.922,10.534 C28.163,10.247 28.358,9.996 28.509,9.784 L24.901,9.784 C24.520,9.800 24.140,9.752 23.774,9.647 C23.518,9.565 23.390,9.328 23.390,8.944 C23.381,8.686 23.489,8.438 23.683,8.272 C23.918,8.091 24.211,8.002 24.506,8.022 L30.042,8.022 C30.449,8.001 30.855,8.077 31.226,8.249 C31.511,8.416 31.674,8.736 31.643,9.069 C31.642,9.208 31.615,9.347 31.564,9.477 C31.519,9.598 31.458,9.712 31.384,9.818 L31.169,10.091 L30.752,10.557 L26.299,15.571 L31.034,15.571 C31.347,15.548 31.657,15.646 31.902,15.843 C32.098,16.024 32.205,16.282 32.195,16.548 C32.201,16.805 32.094,17.051 31.902,17.220 C31.651,17.413 31.338,17.505 31.023,17.480 ZM48.576,34.147 C49.004,33.969 49.495,34.074 49.817,34.409 C50.135,34.746 50.215,35.248 50.020,35.670 C47.241,41.713 42.303,46.477 36.193,49.007 C22.797,54.558 7.476,48.103 1.973,34.595 C-3.530,21.085 2.869,5.635 16.265,0.086 C16.560,-0.038 16.893,-0.030 17.182,0.108 C17.745,0.376 17.986,1.054 17.719,1.621 C14.879,7.757 14.724,14.815 17.292,21.072 C22.351,33.395 36.357,39.248 48.576,34.147 ZM14.574,3.429 C6.978,7.698 2.268,15.779 2.267,24.547 C2.265,37.903 12.999,48.732 26.243,48.733 C34.555,48.707 42.265,44.357 46.637,37.228 C44.302,37.898 41.885,38.240 39.457,38.240 C24.968,38.240 13.222,26.396 13.221,11.785 C13.217,8.944 13.675,6.122 14.574,3.429 Z" />
</svg>
