<svg xmlns="http://www.w3.org/2000/svg" xmlns:xlink="http://www.w3.org/1999/xlink" width="47" height="42">
	<path fill-rule="evenodd" fill="currentColor" d="M45.443,8.990 L39.899,8.990 L41.954,11.37 C42.304,11.384 42.304,11.949 41.954,12.298 C41.604,12.647 41.36,12.647 40.686,12.298 L37.101,8.729 C36.751,8.379 36.751,7.817 37.101,7.468 L40.686,3.897 C41.36,3.549 41.604,3.549 41.954,3.897 C42.304,4.246 42.304,4.812 41.954,5.161 L39.899,7.206 L45.443,7.206 C45.938,7.206 46.339,7.605 46.339,8.97 C46.339,8.591 45.938,8.990 45.443,8.990 ZM39.544,20.337 C41.351,26.768 38.164,35.526 34.94,40.765 C33.924,40.982 33.662,41.112 33.385,41.112 L13.407,41.112 C13.129,41.112 12.868,40.982 12.698,40.764 C8.422,35.260 5.370,26.845 7.240,20.330 C8.275,16.717 12.697,10.956 12.149,1.9 C12.136,0.763 12.224,0.526 12.393,0.347 C12.562,0.169 12.798,0.68 13.44,0.68 L33.747,0.68 C33.993,0.68 34.229,0.169 34.398,0.347 C34.567,0.526 34.655,0.763 34.642,1.9 C34.91,11.2 38.526,16.705 39.544,20.337 ZM24.292,39.327 L32.939,39.327 C36.323,34.774 39.102,27.392 38.36,21.754 C33.199,23.606 28.630,27.577 24.292,30.849 L24.292,39.327 ZM13.851,39.327 L22.499,39.327 L22.499,30.849 C18.192,27.601 13.594,23.604 8.740,21.750 C7.857,26.212 9.235,33.184 13.851,39.327 ZM10.323,17.552 C9.903,18.417 9.526,19.190 9.224,20.23 C14.348,21.941 19.160,26.78 23.396,29.287 C27.612,26.92 32.440,21.943 37.563,20.23 C37.264,19.190 36.887,18.416 36.467,17.551 C36.361,17.334 36.253,17.111 36.145,16.885 C32.226,18.727 27.839,19.696 23.396,19.696 C18.952,19.696 14.565,18.727 10.646,16.885 C10.537,17.111 10.429,17.335 10.323,17.552 ZM32.814,1.853 L13.976,1.853 C14.82,6.156 13.285,10.478 11.605,14.716 C11.533,14.896 11.459,15.77 11.383,15.258 C15.70,16.998 19.205,17.913 23.396,17.913 C27.586,17.913 31.721,16.998 35.408,15.258 C35.331,15.75 35.256,14.893 35.185,14.714 C33.505,10.477 32.709,6.156 32.814,1.853 ZM32.183,14.394 C31.712,14.548 31.206,14.291 31.53,13.824 C30.641,12.573 30.296,11.306 30.25,10.56 C29.921,9.575 30.229,9.98 30.713,8.996 C31.196,8.892 31.673,9.198 31.777,9.680 C32.35,10.868 32.364,12.75 32.756,13.268 C32.910,13.737 32.654,14.239 32.183,14.394 ZM30.565,7.206 C30.71,7.206 29.669,6.807 29.669,6.314 C29.669,5.821 30.71,5.420 30.565,5.420 C31.60,5.420 31.461,5.821 31.461,6.314 C31.461,6.807 31.60,7.206 30.565,7.206 ZM6.105,12.298 C5.755,12.647 5.187,12.647 4.837,12.298 C4.487,11.949 4.487,11.384 4.837,11.37 L6.892,8.990 L1.348,8.990 C0.853,8.990 0.452,8.591 0.452,8.97 C0.452,7.605 0.853,7.206 1.348,7.206 L6.892,7.206 L4.837,5.161 C4.487,4.812 4.487,4.246 4.837,3.897 C5.187,3.551 5.755,3.551 6.105,3.897 L9.690,7.468 C10.40,7.817 10.40,8.381 9.690,8.729 L6.105,12.298 Z" />
</svg>
